<svg width="41" height="18" viewBox="0 0 41 18" fill="none" xmlns="http://www.w3.org/2000/svg">
<g clip-path="url(#clip0_1468_15431)">
<path d="M7.80622 2.6352C8.27289 2.05103 8.58988 1.26676 8.50622 0.464844C7.82286 0.499118 6.9888 0.915952 6.5055 1.50063C6.0721 2.00163 5.68808 2.81817 5.78837 3.58631C6.5554 3.65284 7.32192 3.20274 7.80622 2.6352ZM8.49766 3.73651C7.3834 3.66998 6.43545 4.36907 5.90378 4.36907C5.37109 4.36907 4.55619 3.77028 3.67527 3.78591C2.52775 3.80304 1.46339 4.45173 0.881314 5.48348C-0.317102 7.54699 0.564323 10.6095 1.72897 12.2904C2.29442 13.1221 2.97577 14.0379 3.87383 14.0051C4.72199 13.9719 5.05461 13.4557 6.08621 13.4557C7.11681 13.4557 7.41616 14.0051 8.31422 13.9885C9.24553 13.9719 9.82761 13.1564 10.3931 12.3242C11.0416 11.3761 11.3072 10.4603 11.3239 10.4104C11.3072 10.3938 9.52826 9.71079 9.51163 7.66392C9.49449 5.95022 10.9086 5.13469 10.9751 5.08429C10.1769 3.90334 8.93005 3.77028 8.49766 3.73651ZM18.2009 1.41696C20.6229 1.41696 22.3097 3.08681 22.3097 5.51776C22.3097 7.95777 20.5887 9.6362 18.1399 9.6362H15.4583V13.9013H13.5211V1.41696H18.2009ZM15.4583 8.00969H17.6818C19.3686 8.00969 20.3286 7.10142 20.3286 5.52633C20.3286 3.95173 19.3686 3.05204 17.6904 3.05204H15.4583V8.00918V8.00969ZM22.8157 11.3141C22.8157 9.72239 24.0357 8.74457 26.1982 8.6236L28.6893 8.47642V7.77582C28.6893 6.76372 28.0059 6.15788 26.8645 6.15788C25.783 6.15788 25.1082 6.67703 24.9444 7.49054H23.1795C23.2833 5.84639 24.6843 4.6352 26.9335 4.6352C29.1393 4.6352 30.5489 5.80304 30.5489 7.62864V13.9013H28.7584V12.4048H28.7155C28.1879 13.4169 27.0368 14.0571 25.8434 14.0571C24.0614 14.0571 22.8157 12.9492 22.8157 11.3141ZM28.6893 10.4925V9.7743L26.4487 9.91241C25.3324 9.99053 24.7015 10.4835 24.7015 11.2622C24.7015 12.0581 25.3586 12.5772 26.3625 12.5772C27.6688 12.5772 28.6893 11.6775 28.6893 10.4925ZM32.2397 17.2496V15.7355C32.3778 15.7703 32.6892 15.7703 32.845 15.7703C33.7098 15.7703 34.1769 15.4069 34.4622 14.4729C34.4622 14.4552 34.6265 13.919 34.6265 13.9104L31.3396 4.80002H33.364L35.6651 12.2063H35.6994L38.0005 4.80002H39.973L36.5647 14.3776C35.7861 16.5838 34.8865 17.2934 33.0007 17.2934C32.845 17.2934 32.3778 17.2758 32.2397 17.2496Z" fill="white"/>
</g>
<defs>
<clipPath id="clip0_1468_15431">
<rect width="39.8285" height="17.6411" fill="white" transform="translate(0.30957 0.179688)"/>
</clipPath>
</defs>
</svg>
