<svg width="46" height="18" viewBox="0 0 46 18" fill="none" xmlns="http://www.w3.org/2000/svg">
<g clip-path="url(#clip0_1468_15425)">
<path d="M22.0092 8.69947V13.8639H20.3701V1.11133H24.7152C25.8164 1.11133 26.7554 1.47824 27.5235 2.21256C28.3088 2.94637 28.7014 3.84298 28.7014 4.90137C28.7014 5.98546 28.3088 6.88206 27.5235 7.60782C26.764 8.33357 25.825 8.69191 24.7152 8.69191H22.0086V8.70048L22.0092 8.69947ZM22.0092 2.68127V7.12902H24.7494C25.3981 7.12902 25.9445 6.90726 26.3713 6.47181C26.8068 6.03636 27.0291 5.50717 27.0291 4.90943C27.0291 4.32026 26.8073 3.79963 26.3719 3.36469C25.945 2.9121 25.4072 2.69034 24.75 2.69034H22.0097V2.68177L22.0092 2.68127ZM32.987 4.84945C34.1991 4.84945 35.1552 5.17403 35.8553 5.82267C36.5553 6.47131 36.9051 7.35935 36.9051 8.48577V13.8639H35.3432V12.6518H35.2752C34.6008 13.6502 33.6956 14.1456 32.5691 14.1456C31.6045 14.1456 30.8021 13.8639 30.1534 13.2919C29.5048 12.7198 29.1802 12.0117 29.1802 11.158C29.1802 10.2533 29.5214 9.5361 30.2043 9.0069C30.8873 8.46914 31.8005 8.20455 32.9361 8.20455C33.9093 8.20455 34.7117 8.38397 35.3346 8.74231V8.36683C35.3346 7.7948 35.1129 7.31651 34.6603 6.91533C34.2077 6.51415 33.6785 6.31809 33.0726 6.31809C32.1594 6.31809 31.4336 6.70214 30.9044 7.47879L29.4619 6.57412C30.2557 5.42199 31.4336 4.84996 32.9875 4.84996L32.987 4.84945ZM30.8696 11.1837C30.8696 11.6105 31.0491 11.9689 31.416 12.2506C31.7743 12.5323 32.2017 12.6775 32.6881 12.6775C33.3796 12.6775 33.994 12.4215 34.5317 11.9094C35.07 11.3973 35.3427 10.7996 35.3427 10.1086C34.8306 9.70695 34.122 9.50233 33.2087 9.50233C32.5429 9.50233 31.988 9.66462 31.544 9.98012C31.0914 10.3128 30.8696 10.7139 30.8696 11.1837ZM45.8175 5.13119L40.3541 17.6968H38.6636L40.6953 13.3004L37.0931 5.13119H38.8773L41.4724 11.3968H41.5067L44.0333 5.13119H45.8175Z" fill="white"/>
<path d="M15.4875 7.65828C15.4875 7.12404 15.4401 6.61249 15.3509 6.12109H8.48145V8.93792L12.4383 8.93893C12.3623 9.39759 12.1927 9.83571 11.9401 10.226C11.6876 10.6164 11.3574 10.9506 10.9702 11.2079V13.0354H13.3253C14.7007 11.7628 15.4885 9.8814 15.4885 7.65878L15.4875 7.65828Z" fill="#4285F4"/>
<path d="M10.9718 11.2095C10.3161 11.6515 9.47187 11.91 8.48404 11.91C6.57592 11.91 4.95759 10.6248 4.378 8.8916H1.94824V10.7765C3.15178 13.165 5.62589 14.804 8.48354 14.804C10.4592 14.804 12.1183 14.1543 13.3264 13.0365L10.9713 11.21L10.9718 11.2095Z" fill="#34A853"/>
<path d="M4.14728 7.49227C4.14728 7.00588 4.22843 6.53512 4.37611 6.09308V4.20801H1.94617C1.43324 5.22671 1.16701 6.35173 1.16896 7.49227C1.16896 8.67372 1.4497 9.78864 1.94668 10.7765L4.37661 8.89147C4.22536 8.44047 4.14758 7.96796 4.14728 7.49227Z" fill="#FABB05"/>
<path d="M8.48354 3.0746C9.56209 3.0746 10.5277 3.44604 11.2898 4.1718L13.3768 2.08627C12.1093 0.905408 10.4567 0.180664 8.48354 0.180664C5.6269 0.180664 3.15178 1.81965 1.94824 4.20808L4.3775 6.09302C4.95709 4.36029 6.57542 3.0746 8.48354 3.0746Z" fill="#E94235"/>
</g>
<defs>
<clipPath id="clip0_1468_15425">
<rect width="44.9546" height="17.6411" fill="white" transform="translate(0.90918 0.179688)"/>
</clipPath>
</defs>
</svg>
