<svg width="67" height="18" viewBox="0 0 67 18" fill="none" xmlns="http://www.w3.org/2000/svg">
<g clip-path="url(#clip0_1468_15433)">
<path d="M48.5774 13.0712H47.1486V4.92578H50.7264C51.5489 4.92578 52.196 5.16971 52.6682 5.65858C53.1485 6.14694 53.3889 6.75373 53.3889 7.47846C53.3889 8.19463 53.1485 8.80142 52.6682 9.29785C52.196 9.78671 51.5489 10.0306 50.7264 10.0306H48.5774V13.0712ZM50.5313 8.77219C50.938 8.77219 51.2722 8.65426 51.5327 8.4184C51.7933 8.18203 51.9238 7.86905 51.9238 7.47796C51.9238 7.08737 51.7933 6.77389 51.5327 6.53752C51.2722 6.30116 50.9385 6.18322 50.5313 6.18322H48.5774V8.77219H50.5313ZM59.1878 13.0712H57.9056V12.4362C57.45 12.9573 56.815 13.2178 56.0006 13.2178C55.4782 13.2233 54.9713 13.0413 54.5718 12.7048C54.1565 12.355 53.9488 11.8742 53.9488 11.2639C53.9488 10.6369 54.1524 10.1607 54.5592 9.8351C54.9744 9.50952 55.4547 9.34674 56.0001 9.34674C56.8387 9.34674 57.4737 9.59923 57.9051 10.1037V9.22477C57.9051 8.88257 57.7791 8.61445 57.5266 8.4189C57.2741 8.22335 56.9405 8.12608 56.5252 8.12608C55.8655 8.12608 55.2834 8.37455 54.7789 8.87097L54.2537 7.97942C54.9215 7.3444 55.7476 7.02689 56.7329 7.02689C57.4576 7.02689 58.0477 7.19774 58.5039 7.53995C58.9595 7.88165 59.1878 8.42293 59.1878 9.16379V13.0712ZM56.501 12.3384C57.1441 12.3384 57.6123 12.1348 57.9051 11.7281V10.8365C57.6123 10.4298 57.1441 10.2262 56.501 10.2262C56.1346 10.2262 55.8337 10.324 55.5974 10.519C55.361 10.7146 55.2431 10.9706 55.2431 11.2881C55.2431 11.6056 55.361 11.8621 55.5974 12.0572C55.8337 12.2441 56.1346 12.3384 56.501 12.3384ZM60.5939 15.3794L60.7894 14.2314C60.9435 14.298 61.1099 14.3314 61.2778 14.3291C61.6931 14.3291 61.9738 14.1583 62.1204 13.8161L62.4133 13.1448L59.9951 7.17305H61.363L63.0851 11.5935L64.8067 7.17305H66.1866L63.3411 14.1336C62.9908 15.005 62.315 15.4485 61.3141 15.4646C61.0454 15.4646 60.8055 15.4364 60.5939 15.3794ZM19.7212 10.8794C19.2127 10.8794 18.8115 10.7009 18.5167 10.3441C18.2224 9.97873 18.0752 9.52817 18.0752 8.99294C18.0752 8.46678 18.2224 8.02579 18.5167 7.66847C18.811 7.30308 19.2127 7.12013 19.7212 7.12013C20.2292 7.12013 20.6309 7.30308 20.9247 7.66847C21.2281 8.02529 21.3798 8.46678 21.3798 8.99294C21.3798 9.52767 21.2281 9.97823 20.9247 10.3441C20.6304 10.7009 20.2292 10.8788 19.7212 10.8788V10.8794ZM35.1507 10.8794C34.6422 10.8794 34.241 10.7009 33.9467 10.3441C33.6524 9.97873 33.5052 9.52817 33.5052 8.99294C33.5052 8.46678 33.6524 8.02579 33.9467 7.66847C34.241 7.30308 34.6422 7.12013 35.1507 7.12013C35.6592 7.12013 36.0604 7.30308 36.3547 7.66847C36.6581 8.02529 36.8098 8.46678 36.8098 8.99294C36.8098 9.52767 36.6581 9.97823 36.3547 10.3441C36.0604 10.7009 35.6592 10.8788 35.1507 10.8788V10.8794Z" fill="white"/>
<path fill-rule="evenodd" clip-rule="evenodd" d="M4.65369 0.180664C3.57408 0.180664 2.53869 0.609539 1.77528 1.37294C1.01188 2.13634 0.583008 3.17174 0.583008 4.25135L0.583008 13.7494C0.583008 14.8291 1.01188 15.8645 1.77528 16.6279C2.53869 17.3913 3.57408 17.8201 4.65369 17.8201H39.2543C40.3339 17.8201 41.3693 17.3913 42.1327 16.6279C42.8961 15.8645 43.325 14.8291 43.325 13.7494V4.25135C43.325 3.17174 42.8961 2.13634 42.1327 1.37294C41.3693 0.609539 40.3339 0.180664 39.2543 0.180664H4.65369ZM13.3459 12.2304H15.0585V7.56152C15.0585 6.90987 14.8937 6.42403 14.5635 6.10299C14.2334 5.77288 13.7652 5.60808 13.1584 5.60808C12.6948 5.60808 12.2578 5.72399 11.8476 5.95583C11.4459 6.18816 11.143 6.46435 10.9379 6.78538C10.6788 6.00068 10.0816 5.60808 9.14521 5.60808C8.69918 5.60808 8.27583 5.71946 7.87416 5.94222C7.47299 6.15641 7.19176 6.37968 7.03099 6.61151V5.76834H5.33206V12.2299H7.03099V7.88256C7.18466 7.66723 7.38026 7.48518 7.60604 7.34733C7.83302 7.19965 8.09777 7.12056 8.36857 7.11953C9.01115 7.11953 9.33168 7.46274 9.33168 8.14967V12.2299H11.0442V7.86845C11.198 7.66184 11.3883 7.48506 11.6057 7.34682C11.8369 7.19789 12.1062 7.11879 12.3813 7.11902C13.0239 7.11902 13.3444 7.46224 13.3444 8.14917V12.2294L13.3459 12.2304ZM19.7218 12.3907C20.7565 12.3907 21.5856 12.0651 22.21 11.4145C22.8344 10.7543 23.1464 9.94739 23.1464 8.99284C23.1464 8.03829 22.8344 7.23595 22.21 6.5843C21.5856 5.93315 20.756 5.60808 19.7218 5.60808C18.6872 5.60808 17.8576 5.93365 17.2332 6.5843C16.6178 7.23544 16.3104 8.03829 16.3104 8.99284C16.3104 9.94688 16.6178 10.7543 17.2332 11.414C17.8576 12.0656 18.6872 12.3907 19.7218 12.3907ZM30.4673 12.2304H28.7684V8.32405C28.7684 7.5212 28.3717 7.11953 27.578 7.11953C26.9626 7.11953 26.4722 7.37404 26.1063 7.88206V12.2299H24.4074V5.76885H26.1063V6.61201C26.6683 5.94272 27.4217 5.60858 28.3672 5.60858C29.0627 5.60858 29.5848 5.79102 29.9321 6.15692C30.2889 6.52231 30.4673 7.02629 30.4673 7.66837V12.2304ZM35.1513 12.3907C36.186 12.3907 37.0156 12.0651 37.6395 11.4145C38.2639 10.7543 38.5759 9.94739 38.5759 8.99284C38.5759 8.03829 38.2634 7.23595 37.6395 6.5843C37.0151 5.93315 36.1855 5.60808 35.1513 5.60808C34.1166 5.60808 33.2871 5.93365 32.6632 6.5843C32.0478 7.23544 31.7399 8.03829 31.7399 8.99284C31.7399 9.94688 32.0478 10.7543 32.6632 11.414C33.2876 12.0656 34.1166 12.3907 35.1513 12.3907Z" fill="white"/>
</g>
<defs>
<clipPath id="clip0_1468_15433">
<rect width="65.7206" height="17.6411" fill="white" transform="translate(0.583008 0.179688)"/>
</clipPath>
</defs>
</svg>
