<svg width="42" height="18" viewBox="0 0 42 18" fill="none" xmlns="http://www.w3.org/2000/svg">
<g clip-path="url(#clip0_1468_15419)">
<path d="M20.5154 2.59174L17.7878 15.3444H14.4892L17.2179 2.59174H20.5154ZM34.393 10.8257L36.129 6.03743L37.1282 10.8257H34.393ZM38.0736 15.3449H41.1242L38.4616 2.59224H35.6457C35.345 2.58944 35.0504 2.67713 34.8001 2.84394C34.5499 3.01074 34.3555 3.24895 34.2424 3.52762L29.292 15.3449H32.7558L33.4437 13.4398H37.6755L38.0736 15.3449ZM29.4643 11.181C29.4784 7.81546 24.8107 7.62999 24.843 6.12613C24.8531 5.66852 25.2884 5.18218 26.2418 5.0577C26.7145 4.99571 28.0171 4.94833 29.4935 5.6282L30.073 2.92386C29.2794 2.63609 28.258 2.3584 26.9876 2.3584C23.7273 2.3584 21.433 4.09208 21.4134 6.57366C21.3922 8.40965 23.0511 9.43423 24.3008 10.044C25.5868 10.669 26.0176 11.0701 26.0131 11.629C26.0035 12.4843 24.9876 12.8623 24.0377 12.8769C22.3799 12.9026 21.4179 12.4284 20.651 12.0715L20.0528 14.8656C20.8238 15.2189 22.2458 15.5278 23.7208 15.5429C27.1862 15.5429 29.4532 13.8309 29.4638 11.18M15.8024 2.59174L10.4579 15.3449H6.97141L4.34152 5.16756C4.18178 4.54062 4.0427 4.31131 3.55744 4.04722C2.76479 3.61632 1.45564 3.21314 0.303711 2.96216L0.381817 2.59174H5.99434C6.70988 2.59174 7.35337 3.068 7.51513 3.892L8.9044 11.2712L12.3375 2.59174H15.8024Z" fill="white"/>
</g>
<defs>
<clipPath id="clip0_1468_15419">
<rect width="40.9626" height="17.6411" fill="white" transform="translate(0.303711 0.179688)"/>
</clipPath>
</defs>
</svg>
