<svg width="70" height="64" viewBox="0 0 70 64" fill="none" xmlns="http://www.w3.org/2000/svg">
<mask id="path-1-inside-1_1517_10446" fill="white">
<path fill-rule="evenodd" clip-rule="evenodd" d="M54.8084 46.8694C54.8084 46.8693 54.8084 46.8692 54.8084 46.8691C54.8084 35.866 45.9398 26.9463 34.9999 26.9463C24.06 26.9463 15.1914 35.866 15.1914 46.8691C15.1914 46.8692 15.1914 46.8693 15.1914 46.8694H54.8084Z"/>
</mask>
<path d="M54.8084 46.8694V48.8694H56.8084V46.8694H54.8084ZM15.1914 46.8694H13.1914V48.8694H15.1914V46.8694ZM52.8084 46.8691V46.8691C52.8084 46.8691 52.8084 46.8691 52.8084 46.8691C52.8084 46.8691 52.8084 46.8691 52.8084 46.8691V46.8691C52.8084 46.8691 52.8084 46.8691 52.8084 46.8691C52.8084 46.8691 52.8084 46.8691 52.8084 46.8691V46.8691C52.8084 46.8691 52.8084 46.8691 52.8084 46.8691C52.8084 46.8691 52.8084 46.8691 52.8084 46.8691C52.8084 46.8691 52.8084 46.8691 52.8084 46.8691V46.8691C52.8084 46.8691 52.8084 46.8691 52.8084 46.8691C52.8084 46.8691 52.8084 46.8691 52.8084 46.8691V46.8691C52.8084 46.8691 52.8084 46.8691 52.8084 46.8691C52.8084 46.8691 52.8084 46.8691 52.8084 46.8691C52.8084 46.8691 52.8084 46.8691 52.8084 46.8691V46.8691C52.8084 46.8691 52.8084 46.8691 52.8084 46.8691C52.8084 46.8691 52.8084 46.8691 52.8084 46.8691V46.8691V46.8691C52.8084 46.8691 52.8084 46.8691 52.8084 46.8691C52.8084 46.8691 52.8084 46.8691 52.8084 46.8691V46.8691C52.8084 46.8691 52.8084 46.8691 52.8084 46.8691C52.8084 46.8691 52.8084 46.8691 52.8084 46.8691V46.8691V46.8691C52.8084 46.8691 52.8084 46.8691 52.8084 46.8691C52.8084 46.8691 52.8084 46.8691 52.8084 46.8691V46.8691C52.8084 46.8691 52.8084 46.8691 52.8084 46.8691C52.8084 46.8691 52.8084 46.8691 52.8084 46.8691C52.8084 46.8691 52.8084 46.8691 52.8084 46.8691V46.8691C52.8084 46.8691 52.8084 46.8691 52.8084 46.8691C52.8084 46.8691 52.8084 46.8691 52.8084 46.8691V46.8691C52.8084 46.8691 52.8084 46.8691 52.8084 46.8691C52.8084 46.8691 52.8084 46.8691 52.8084 46.8691C52.8084 46.8691 52.8084 46.8691 52.8084 46.8691V46.8691C52.8084 46.8692 52.8084 46.8692 52.8084 46.8692C52.8084 46.8692 52.8084 46.8692 52.8084 46.8692V46.8692V46.8692C52.8084 46.8692 52.8084 46.8692 52.8084 46.8692C52.8084 46.8692 52.8084 46.8692 52.8084 46.8692V46.8692C52.8084 46.8692 52.8084 46.8692 52.8084 46.8692C52.8084 46.8692 52.8084 46.8692 52.8084 46.8692C52.8084 46.8692 52.8084 46.8692 52.8084 46.8692V46.8692C52.8084 46.8692 52.8084 46.8692 52.8084 46.8692C52.8084 46.8692 52.8084 46.8692 52.8084 46.8692V46.8692V46.8692C52.8084 46.8692 52.8084 46.8692 52.8084 46.8692C52.8084 46.8692 52.8084 46.8692 52.8084 46.8692V46.8692C52.8084 46.8692 52.8084 46.8692 52.8084 46.8692C52.8084 46.8692 52.8084 46.8692 52.8084 46.8692C52.8084 46.8692 52.8084 46.8692 52.8084 46.8692V46.8692C52.8084 46.8692 52.8084 46.8692 52.8084 46.8692C52.8084 46.8692 52.8084 46.8692 52.8084 46.8692V46.8692V46.8692C52.8084 46.8692 52.8084 46.8692 52.8084 46.8692C52.8084 46.8692 52.8084 46.8692 52.8084 46.8692V46.8692C52.8084 46.8692 52.8084 46.8692 52.8084 46.8692C52.8084 46.8692 52.8084 46.8692 52.8084 46.8692C52.8084 46.8692 52.8084 46.8692 52.8084 46.8692V46.8692C52.8084 46.8692 52.8084 46.8692 52.8084 46.8692C52.8084 46.8692 52.8084 46.8692 52.8084 46.8692C52.8084 46.8692 52.8084 46.8692 52.8084 46.8692V46.8692C52.8084 46.8692 52.8084 46.8692 52.8084 46.8692C52.8084 46.8692 52.8084 46.8692 52.8084 46.8692V46.8692C52.8084 46.8692 52.8084 46.8692 52.8084 46.8692C52.8084 46.8692 52.8084 46.8692 52.8084 46.8692C52.8084 46.8692 52.8084 46.8692 52.8084 46.8692V46.8692C52.8084 46.8692 52.8084 46.8692 52.8084 46.8692C52.8084 46.8692 52.8084 46.8692 52.8084 46.8692C52.8084 46.8692 52.8084 46.8692 52.8084 46.8692V46.8692C52.8084 46.8692 52.8084 46.8692 52.8084 46.8692C52.8084 46.8692 52.8084 46.8692 52.8084 46.8692V46.8692V46.8692C52.8084 46.8692 52.8084 46.8692 52.8084 46.8692C52.8084 46.8692 52.8084 46.8692 52.8084 46.8693V46.8693C52.8084 46.8693 52.8084 46.8693 52.8084 46.8693C52.8084 46.8693 52.8084 46.8693 52.8084 46.8693C52.8084 46.8693 52.8084 46.8693 52.8084 46.8693V46.8693C52.8084 46.8693 52.8084 46.8693 52.8084 46.8693C52.8084 46.8693 52.8084 46.8693 52.8084 46.8693C52.8084 46.8693 52.8084 46.8693 52.8084 46.8693V46.8693C52.8084 46.8693 52.8084 46.8693 52.8084 46.8693C52.8084 46.8693 52.8084 46.8693 52.8084 46.8693V46.8693C52.8084 46.8693 52.8084 46.8693 52.8084 46.8693C52.8084 46.8693 52.8084 46.8693 52.8084 46.8693C52.8084 46.8693 52.8084 46.8693 52.8084 46.8693V46.8693C52.8084 46.8693 52.8084 46.8693 52.8084 46.8693C52.8084 46.8693 52.8084 46.8693 52.8084 46.8693C52.8084 46.8693 52.8084 46.8693 52.8084 46.8693V46.8693C52.8084 46.8693 52.8084 46.8693 52.8084 46.8693C52.8084 46.8693 52.8084 46.8693 52.8084 46.8693V46.8693V46.8693C52.8084 46.8693 52.8084 46.8693 52.8084 46.8693C52.8084 46.8693 52.8084 46.8693 52.8084 46.8693V46.8693C52.8084 46.8693 52.8084 46.8693 52.8084 46.8693C52.8084 46.8693 52.8084 46.8693 52.8084 46.8693C52.8084 46.8693 52.8084 46.8693 52.8084 46.8693V46.8693C52.8084 46.8693 52.8084 46.8693 52.8084 46.8693C52.8084 46.8693 52.8084 46.8693 52.8084 46.8693V46.8693V46.8693C52.8084 46.8693 52.8084 46.8693 52.8084 46.8693C52.8084 46.8693 52.8084 46.8693 52.8084 46.8693V46.8693C52.8084 46.8693 52.8084 46.8693 52.8084 46.8693C52.8084 46.8693 52.8084 46.8693 52.8084 46.8693C52.8084 46.8693 52.8084 46.8693 52.8084 46.8693V46.8693C52.8084 46.8693 52.8084 46.8693 52.8084 46.8693C52.8084 46.8693 52.8084 46.8693 52.8084 46.8693V46.8693V46.8693C52.8084 46.8693 52.8084 46.8693 52.8084 46.8693C52.8084 46.8693 52.8084 46.8693 52.8084 46.8693V46.8693C52.8084 46.8693 52.8084 46.8693 52.8084 46.8693C52.8084 46.8693 52.8084 46.8693 52.8084 46.8693C52.8084 46.8693 52.8084 46.8693 52.8084 46.8694V46.8694C52.8084 46.8694 52.8084 46.8694 52.8084 46.8694C52.8084 46.8694 52.8084 46.8694 52.8084 46.8694V46.8694C52.8084 46.8694 52.8084 46.8694 52.8084 46.8694C52.8084 46.8694 52.8084 46.8694 52.8084 46.8694C52.8084 46.8694 52.8084 46.8694 52.8084 46.8694V46.8694C52.8084 46.8694 52.8084 46.8694 52.8084 46.8694C52.8084 46.8694 52.8084 46.8694 52.8084 46.8694V46.8694V46.8694C52.8084 46.8694 52.8084 46.8694 52.8084 46.8694C52.8084 46.8694 52.8084 46.8694 52.8084 46.8694V46.8694C52.8084 46.8694 52.8084 46.8694 52.8084 46.8694C52.8084 46.8694 52.8084 46.8694 52.8084 46.8694V46.8694V46.8694C52.8084 46.8694 52.8084 46.8694 52.8084 46.8694C52.8084 46.8694 52.8084 46.8694 52.8084 46.8694V46.8694C52.8084 46.8694 52.8084 46.8694 52.8084 46.8694C52.8084 46.8694 52.8084 46.8694 52.8084 46.8694C52.8084 46.8694 52.8084 46.8694 52.8084 46.8694V46.8694C52.8084 46.8694 52.8084 46.8694 52.8084 46.8694C52.8084 46.8694 52.8084 46.8694 52.8084 46.8694V46.8694C52.8084 46.8694 52.8084 46.8694 52.8084 46.8694C52.8084 46.8694 52.8084 46.8694 52.8084 46.8694C52.8084 46.8694 52.8084 46.8694 52.8084 46.8694V46.8694C52.8084 46.8694 52.8084 46.8694 52.8084 46.8694C52.8084 46.8694 52.8084 46.8694 52.8084 46.8694V46.8694C52.8084 46.8694 52.8084 46.8694 52.8084 46.8694C52.8084 46.8694 52.8084 46.8694 52.8084 46.8694V46.8694H56.8084V46.8694C56.8084 46.8694 56.8084 46.8694 56.8084 46.8694C56.8084 46.8694 56.8084 46.8694 56.8084 46.8694V46.8694C56.8084 46.8694 56.8084 46.8694 56.8084 46.8694C56.8084 46.8694 56.8084 46.8694 56.8084 46.8694V46.8694C56.8084 46.8694 56.8084 46.8694 56.8084 46.8694C56.8084 46.8694 56.8084 46.8694 56.8084 46.8694C56.8084 46.8694 56.8084 46.8694 56.8084 46.8694V46.8694C56.8084 46.8694 56.8084 46.8694 56.8084 46.8694C56.8084 46.8694 56.8084 46.8694 56.8084 46.8694V46.8694C56.8084 46.8694 56.8084 46.8694 56.8084 46.8694C56.8084 46.8694 56.8084 46.8694 56.8084 46.8694C56.8084 46.8694 56.8084 46.8694 56.8084 46.8694V46.8694C56.8084 46.8694 56.8084 46.8694 56.8084 46.8694C56.8084 46.8694 56.8084 46.8694 56.8084 46.8694V46.8694V46.8694C56.8084 46.8694 56.8084 46.8694 56.8084 46.8694C56.8084 46.8694 56.8084 46.8694 56.8084 46.8694V46.8694C56.8084 46.8694 56.8084 46.8694 56.8084 46.8694C56.8084 46.8694 56.8084 46.8694 56.8084 46.8694V46.8694V46.8694C56.8084 46.8694 56.8084 46.8694 56.8084 46.8694C56.8084 46.8694 56.8084 46.8694 56.8084 46.8694V46.8694C56.8084 46.8694 56.8084 46.8694 56.8084 46.8694C56.8084 46.8694 56.8084 46.8694 56.8084 46.8694C56.8084 46.8694 56.8084 46.8694 56.8084 46.8694V46.8694C56.8084 46.8694 56.8084 46.8694 56.8084 46.8694C56.8084 46.8694 56.8084 46.8694 56.8084 46.8694V46.8694C56.8084 46.8693 56.8084 46.8693 56.8084 46.8693C56.8084 46.8693 56.8084 46.8693 56.8084 46.8693C56.8084 46.8693 56.8084 46.8693 56.8084 46.8693V46.8693C56.8084 46.8693 56.8084 46.8693 56.8084 46.8693C56.8084 46.8693 56.8084 46.8693 56.8084 46.8693V46.8693V46.8693C56.8084 46.8693 56.8084 46.8693 56.8084 46.8693C56.8084 46.8693 56.8084 46.8693 56.8084 46.8693V46.8693C56.8084 46.8693 56.8084 46.8693 56.8084 46.8693C56.8084 46.8693 56.8084 46.8693 56.8084 46.8693C56.8084 46.8693 56.8084 46.8693 56.8084 46.8693V46.8693C56.8084 46.8693 56.8084 46.8693 56.8084 46.8693C56.8084 46.8693 56.8084 46.8693 56.8084 46.8693V46.8693V46.8693C56.8084 46.8693 56.8084 46.8693 56.8084 46.8693C56.8084 46.8693 56.8084 46.8693 56.8084 46.8693V46.8693C56.8084 46.8693 56.8084 46.8693 56.8084 46.8693C56.8084 46.8693 56.8084 46.8693 56.8084 46.8693C56.8084 46.8693 56.8084 46.8693 56.8084 46.8693V46.8693C56.8084 46.8693 56.8084 46.8693 56.8084 46.8693C56.8084 46.8693 56.8084 46.8693 56.8084 46.8693V46.8693V46.8693C56.8084 46.8693 56.8084 46.8693 56.8084 46.8693C56.8084 46.8693 56.8084 46.8693 56.8084 46.8693V46.8693C56.8084 46.8693 56.8084 46.8693 56.8084 46.8693C56.8084 46.8693 56.8084 46.8693 56.8084 46.8693C56.8084 46.8693 56.8084 46.8693 56.8084 46.8693V46.8693C56.8084 46.8693 56.8084 46.8693 56.8084 46.8693C56.8084 46.8693 56.8084 46.8693 56.8084 46.8693C56.8084 46.8693 56.8084 46.8693 56.8084 46.8693V46.8693C56.8084 46.8693 56.8084 46.8693 56.8084 46.8693C56.8084 46.8693 56.8084 46.8693 56.8084 46.8693V46.8693C56.8084 46.8693 56.8084 46.8693 56.8084 46.8693C56.8084 46.8693 56.8084 46.8693 56.8084 46.8693C56.8084 46.8693 56.8084 46.8693 56.8084 46.8693V46.8693C56.8084 46.8693 56.8084 46.8693 56.8084 46.8693C56.8084 46.8693 56.8084 46.8693 56.8084 46.8693C56.8084 46.8693 56.8084 46.8693 56.8084 46.8693V46.8693C56.8084 46.8692 56.8084 46.8692 56.8084 46.8692C56.8084 46.8692 56.8084 46.8692 56.8084 46.8692V46.8692V46.8692C56.8084 46.8692 56.8084 46.8692 56.8084 46.8692C56.8084 46.8692 56.8084 46.8692 56.8084 46.8692V46.8692C56.8084 46.8692 56.8084 46.8692 56.8084 46.8692C56.8084 46.8692 56.8084 46.8692 56.8084 46.8692C56.8084 46.8692 56.8084 46.8692 56.8084 46.8692V46.8692C56.8084 46.8692 56.8084 46.8692 56.8084 46.8692C56.8084 46.8692 56.8084 46.8692 56.8084 46.8692C56.8084 46.8692 56.8084 46.8692 56.8084 46.8692V46.8692C56.8084 46.8692 56.8084 46.8692 56.8084 46.8692C56.8084 46.8692 56.8084 46.8692 56.8084 46.8692V46.8692C56.8084 46.8692 56.8084 46.8692 56.8084 46.8692C56.8084 46.8692 56.8084 46.8692 56.8084 46.8692C56.8084 46.8692 56.8084 46.8692 56.8084 46.8692V46.8692C56.8084 46.8692 56.8084 46.8692 56.8084 46.8692C56.8084 46.8692 56.8084 46.8692 56.8084 46.8692C56.8084 46.8692 56.8084 46.8692 56.8084 46.8692V46.8692C56.8084 46.8692 56.8084 46.8692 56.8084 46.8692C56.8084 46.8692 56.8084 46.8692 56.8084 46.8692V46.8692V46.8692C56.8084 46.8692 56.8084 46.8692 56.8084 46.8692C56.8084 46.8692 56.8084 46.8692 56.8084 46.8692V46.8692C56.8084 46.8692 56.8084 46.8692 56.8084 46.8692C56.8084 46.8692 56.8084 46.8692 56.8084 46.8692C56.8084 46.8692 56.8084 46.8692 56.8084 46.8692V46.8692C56.8084 46.8692 56.8084 46.8692 56.8084 46.8692C56.8084 46.8692 56.8084 46.8692 56.8084 46.8692V46.8692V46.8692C56.8084 46.8692 56.8084 46.8692 56.8084 46.8692C56.8084 46.8692 56.8084 46.8692 56.8084 46.8692V46.8692C56.8084 46.8692 56.8084 46.8692 56.8084 46.8692C56.8084 46.8692 56.8084 46.8692 56.8084 46.8692C56.8084 46.8692 56.8084 46.8692 56.8084 46.8692V46.8692C56.8084 46.8692 56.8084 46.8692 56.8084 46.8692C56.8084 46.8692 56.8084 46.8692 56.8084 46.8692V46.8692V46.8692C56.8084 46.8692 56.8084 46.8692 56.8084 46.8692C56.8084 46.8692 56.8084 46.8692 56.8084 46.8691V46.8691C56.8084 46.8691 56.8084 46.8691 56.8084 46.8691C56.8084 46.8691 56.8084 46.8691 56.8084 46.8691C56.8084 46.8691 56.8084 46.8691 56.8084 46.8691V46.8691C56.8084 46.8691 56.8084 46.8691 56.8084 46.8691C56.8084 46.8691 56.8084 46.8691 56.8084 46.8691V46.8691C56.8084 46.8691 56.8084 46.8691 56.8084 46.8691C56.8084 46.8691 56.8084 46.8691 56.8084 46.8691C56.8084 46.8691 56.8084 46.8691 56.8084 46.8691V46.8691C56.8084 46.8691 56.8084 46.8691 56.8084 46.8691C56.8084 46.8691 56.8084 46.8691 56.8084 46.8691V46.8691V46.8691C56.8084 46.8691 56.8084 46.8691 56.8084 46.8691C56.8084 46.8691 56.8084 46.8691 56.8084 46.8691V46.8691C56.8084 46.8691 56.8084 46.8691 56.8084 46.8691C56.8084 46.8691 56.8084 46.8691 56.8084 46.8691V46.8691V46.8691C56.8084 46.8691 56.8084 46.8691 56.8084 46.8691C56.8084 46.8691 56.8084 46.8691 56.8084 46.8691V46.8691C56.8084 46.8691 56.8084 46.8691 56.8084 46.8691C56.8084 46.8691 56.8084 46.8691 56.8084 46.8691C56.8084 46.8691 56.8084 46.8691 56.8084 46.8691V46.8691C56.8084 46.8691 56.8084 46.8691 56.8084 46.8691C56.8084 46.8691 56.8084 46.8691 56.8084 46.8691V46.8691C56.8084 46.8691 56.8084 46.8691 56.8084 46.8691C56.8084 46.8691 56.8084 46.8691 56.8084 46.8691C56.8084 46.8691 56.8084 46.8691 56.8084 46.8691V46.8691C56.8084 46.8691 56.8084 46.8691 56.8084 46.8691C56.8084 46.8691 56.8084 46.8691 56.8084 46.8691V46.8691C56.8084 46.8691 56.8084 46.8691 56.8084 46.8691C56.8084 46.8691 56.8084 46.8691 56.8084 46.8691V46.8691H52.8084ZM34.9999 28.9463C44.8244 28.9463 52.8084 36.9597 52.8084 46.8691H56.8084C56.8084 34.7723 47.0552 24.9463 34.9999 24.9463V28.9463ZM17.1914 46.8691C17.1914 36.9597 25.1754 28.9463 34.9999 28.9463V24.9463C22.9446 24.9463 13.1914 34.7723 13.1914 46.8691H17.1914ZM17.1914 46.8694C17.1914 46.8693 17.1914 46.8693 17.1914 46.8692C17.1914 46.8692 17.1914 46.8691 17.1914 46.8691H13.1914C13.1914 46.8691 13.1914 46.8692 13.1914 46.8693C13.1914 46.8693 13.1914 46.8694 13.1914 46.8694H17.1914ZM15.1914 48.8694H54.8084V44.8694H15.1914V48.8694Z" fill="#0C99A2" mask="url(#path-1-inside-1_1517_10446)"/>
<mask id="path-3-inside-2_1517_10446" fill="white">
<path fill-rule="evenodd" clip-rule="evenodd" d="M20.1416 46.8694H49.8543C49.8541 38.6173 43.2027 31.9277 34.998 31.9277C26.7932 31.9277 20.1418 38.6173 20.1416 46.8694Z"/>
</mask>
<path d="M20.1416 46.8694L18.1416 46.8693L18.1415 48.8694H20.1416V46.8694ZM49.8543 46.8694V48.8694H51.8544L51.8543 46.8693L49.8543 46.8694ZM20.1416 48.8694H49.8543V44.8694H20.1416V48.8694ZM34.998 33.9277C42.0874 33.9277 47.8541 39.711 47.8543 46.8694L51.8543 46.8693C51.854 37.5235 44.3181 29.9277 34.998 29.9277V33.9277ZM22.1416 46.8694C22.1418 39.711 27.9086 33.9277 34.998 33.9277V29.9277C25.6778 29.9277 18.1419 37.5235 18.1416 46.8693L22.1416 46.8694Z" fill="#0C99A2" mask="url(#path-3-inside-2_1517_10446)"/>
<mask id="path-5-inside-3_1517_10446" fill="white">
<path fill-rule="evenodd" clip-rule="evenodd" d="M25.0938 46.3688H43.9118C43.9114 41.1427 39.699 36.9062 34.5028 36.9062C29.3066 36.9062 25.0942 41.1427 25.0938 46.3688Z"/>
</mask>
<path d="M25.0938 46.3688L23.0938 46.3686L23.0936 48.3688H25.0938V46.3688ZM43.9118 46.3688V48.3688H45.912L45.9118 46.3686L43.9118 46.3688ZM25.0938 48.3688H43.9118V44.3688H25.0938V48.3688ZM34.5028 38.9062C38.5836 38.9062 41.9115 42.2365 41.9118 46.369L45.9118 46.3686C45.9113 40.0489 40.8143 34.9062 34.5028 34.9062V38.9062ZM27.0938 46.369C27.0941 42.2365 30.4219 38.9062 34.5028 38.9062V34.9062C28.1912 34.9062 23.0943 40.0489 23.0938 46.3686L27.0938 46.369Z" fill="#0C99A2" mask="url(#path-5-inside-3_1517_10446)"/>
<mask id="path-7-inside-4_1517_10446" fill="white">
<path fill-rule="evenodd" clip-rule="evenodd" d="M59.7605 46.8695C59.7605 46.8694 59.7605 46.8694 59.7605 46.8693C59.7605 33.1155 48.6748 21.9658 34.9999 21.9658C21.325 21.9658 10.2393 33.1155 10.2393 46.8693C10.2393 46.8694 10.2393 46.8694 10.2393 46.8695H59.7605Z"/>
</mask>
<path d="M59.7605 46.8695V48.8695H61.7605V46.8695H59.7605ZM10.2393 46.8695H8.23926V48.8695H10.2393V46.8695ZM57.7605 46.8693V46.8693C57.7605 46.8693 57.7605 46.8693 57.7605 46.8693C57.7605 46.8693 57.7605 46.8693 57.7605 46.8693V46.8693V46.8693C57.7605 46.8693 57.7605 46.8693 57.7605 46.8693C57.7605 46.8693 57.7605 46.8693 57.7605 46.8693V46.8693V46.8693C57.7605 46.8693 57.7605 46.8693 57.7605 46.8693C57.7605 46.8693 57.7605 46.8693 57.7605 46.8693C57.7605 46.8693 57.7605 46.8693 57.7605 46.8693V46.8693C57.7605 46.8693 57.7605 46.8693 57.7605 46.8693C57.7605 46.8693 57.7605 46.8693 57.7605 46.8693C57.7605 46.8693 57.7605 46.8693 57.7605 46.8693V46.8693C57.7605 46.8693 57.7605 46.8693 57.7605 46.8693C57.7605 46.8693 57.7605 46.8693 57.7605 46.8693C57.7605 46.8693 57.7605 46.8693 57.7605 46.8693V46.8693V46.8693C57.7605 46.8693 57.7605 46.8693 57.7605 46.8693C57.7605 46.8693 57.7605 46.8693 57.7605 46.8693C57.7605 46.8693 57.7605 46.8693 57.7605 46.8693V46.8693V46.8693C57.7605 46.8693 57.7605 46.8693 57.7605 46.8693C57.7605 46.8693 57.7605 46.8693 57.7605 46.8693C57.7605 46.8693 57.7605 46.8693 57.7605 46.8694V46.8694C57.7605 46.8694 57.7605 46.8694 57.7605 46.8694C57.7605 46.8694 57.7605 46.8694 57.7605 46.8694C57.7605 46.8694 57.7605 46.8694 57.7605 46.8694C57.7605 46.8694 57.7605 46.8694 57.7605 46.8694V46.8694C57.7605 46.8694 57.7605 46.8694 57.7605 46.8694C57.7605 46.8694 57.7605 46.8694 57.7605 46.8694C57.7605 46.8694 57.7605 46.8694 57.7605 46.8694C57.7605 46.8694 57.7605 46.8694 57.7605 46.8694V46.8694C57.7605 46.8694 57.7605 46.8694 57.7605 46.8694C57.7605 46.8694 57.7605 46.8694 57.7605 46.8694C57.7605 46.8694 57.7605 46.8694 57.7605 46.8694C57.7605 46.8694 57.7605 46.8694 57.7605 46.8694V46.8694V46.8694C57.7605 46.8694 57.7605 46.8694 57.7605 46.8694C57.7605 46.8694 57.7605 46.8694 57.7605 46.8694C57.7605 46.8694 57.7605 46.8694 57.7605 46.8694V46.8694V46.8694C57.7605 46.8694 57.7605 46.8694 57.7605 46.8694C57.7605 46.8694 57.7605 46.8694 57.7605 46.8694C57.7605 46.8694 57.7605 46.8694 57.7605 46.8694V46.8694V46.8694C57.7605 46.8694 57.7605 46.8694 57.7605 46.8694C57.7605 46.8694 57.7605 46.8694 57.7605 46.8694C57.7605 46.8694 57.7605 46.8694 57.7605 46.8694V46.8694V46.8694C57.7605 46.8694 57.7605 46.8694 57.7605 46.8694C57.7605 46.8694 57.7605 46.8694 57.7605 46.8694C57.7605 46.8694 57.7605 46.8694 57.7605 46.8694C57.7605 46.8694 57.7605 46.8694 57.7605 46.8694V46.8694C57.7605 46.8694 57.7605 46.8694 57.7605 46.8694C57.7605 46.8694 57.7605 46.8694 57.7605 46.8694C57.7605 46.8694 57.7605 46.8694 57.7605 46.8694C57.7605 46.8694 57.7605 46.8694 57.7605 46.8694V46.8694C57.7605 46.8694 57.7605 46.8694 57.7605 46.8694C57.7605 46.8694 57.7605 46.8694 57.7605 46.8694C57.7605 46.8694 57.7605 46.8694 57.7605 46.8694C57.7605 46.8694 57.7605 46.8694 57.7605 46.8694V46.8694C57.7605 46.8694 57.7605 46.8694 57.7605 46.8694C57.7605 46.8694 57.7605 46.8694 57.7605 46.8694C57.7605 46.8694 57.7605 46.8694 57.7605 46.8694V46.8694V46.8694C57.7605 46.8695 57.7605 46.8695 57.7605 46.8695C57.7605 46.8695 57.7605 46.8695 57.7605 46.8695C57.7605 46.8695 57.7605 46.8695 57.7605 46.8695V46.8695V46.8695C57.7605 46.8695 57.7605 46.8695 57.7605 46.8695C57.7605 46.8695 57.7605 46.8695 57.7605 46.8695C57.7605 46.8695 57.7605 46.8695 57.7605 46.8695V46.8695C57.7605 46.8695 57.7605 46.8695 57.7605 46.8695C57.7605 46.8695 57.7605 46.8695 57.7605 46.8695C57.7605 46.8695 57.7605 46.8695 57.7605 46.8695V46.8695C57.7605 46.8695 57.7605 46.8695 57.7605 46.8695C57.7605 46.8695 57.7605 46.8695 57.7605 46.8695C57.7605 46.8695 57.7605 46.8695 57.7605 46.8695V46.8695V46.8695C57.7605 46.8695 57.7605 46.8695 57.7605 46.8695C57.7605 46.8695 57.7605 46.8695 57.7605 46.8695V46.8695V46.8695C57.7605 46.8695 57.7605 46.8695 57.7605 46.8695C57.7605 46.8695 57.7605 46.8695 57.7605 46.8695V46.8695H61.7605V46.8695C61.7605 46.8695 61.7605 46.8695 61.7605 46.8695C61.7605 46.8695 61.7605 46.8695 61.7605 46.8695V46.8695V46.8695C61.7605 46.8695 61.7605 46.8695 61.7605 46.8695C61.7605 46.8695 61.7605 46.8695 61.7605 46.8695V46.8695V46.8695C61.7605 46.8695 61.7605 46.8695 61.7605 46.8695C61.7605 46.8695 61.7605 46.8695 61.7605 46.8695C61.7605 46.8695 61.7605 46.8695 61.7605 46.8695V46.8695C61.7605 46.8695 61.7605 46.8695 61.7605 46.8695C61.7605 46.8695 61.7605 46.8695 61.7605 46.8695C61.7605 46.8695 61.7605 46.8695 61.7605 46.8695V46.8695C61.7605 46.8695 61.7605 46.8695 61.7605 46.8695C61.7605 46.8695 61.7605 46.8695 61.7605 46.8695C61.7605 46.8695 61.7605 46.8695 61.7605 46.8695V46.8695V46.8695C61.7605 46.8695 61.7605 46.8695 61.7605 46.8695C61.7605 46.8695 61.7605 46.8695 61.7605 46.8695C61.7605 46.8695 61.7605 46.8695 61.7605 46.8694V46.8694V46.8694C61.7605 46.8694 61.7605 46.8694 61.7605 46.8694C61.7605 46.8694 61.7605 46.8694 61.7605 46.8694C61.7605 46.8694 61.7605 46.8694 61.7605 46.8694V46.8694C61.7605 46.8694 61.7605 46.8694 61.7605 46.8694C61.7605 46.8694 61.7605 46.8694 61.7605 46.8694C61.7605 46.8694 61.7605 46.8694 61.7605 46.8694C61.7605 46.8694 61.7605 46.8694 61.7605 46.8694V46.8694C61.7605 46.8694 61.7605 46.8694 61.7605 46.8694C61.7605 46.8694 61.7605 46.8694 61.7605 46.8694C61.7605 46.8694 61.7605 46.8694 61.7605 46.8694C61.7605 46.8694 61.7605 46.8694 61.7605 46.8694V46.8694C61.7605 46.8694 61.7605 46.8694 61.7605 46.8694C61.7605 46.8694 61.7605 46.8694 61.7605 46.8694C61.7605 46.8694 61.7605 46.8694 61.7605 46.8694C61.7605 46.8694 61.7605 46.8694 61.7605 46.8694V46.8694V46.8694C61.7605 46.8694 61.7605 46.8694 61.7605 46.8694C61.7605 46.8694 61.7605 46.8694 61.7605 46.8694C61.7605 46.8694 61.7605 46.8694 61.7605 46.8694V46.8694V46.8694C61.7605 46.8694 61.7605 46.8694 61.7605 46.8694C61.7605 46.8694 61.7605 46.8694 61.7605 46.8694C61.7605 46.8694 61.7605 46.8694 61.7605 46.8694V46.8694V46.8694C61.7605 46.8694 61.7605 46.8694 61.7605 46.8694C61.7605 46.8694 61.7605 46.8694 61.7605 46.8694C61.7605 46.8694 61.7605 46.8694 61.7605 46.8694V46.8694V46.8694C61.7605 46.8694 61.7605 46.8694 61.7605 46.8694C61.7605 46.8694 61.7605 46.8694 61.7605 46.8694C61.7605 46.8694 61.7605 46.8694 61.7605 46.8694C61.7605 46.8694 61.7605 46.8694 61.7605 46.8694V46.8694C61.7605 46.8694 61.7605 46.8694 61.7605 46.8694C61.7605 46.8694 61.7605 46.8694 61.7605 46.8694C61.7605 46.8694 61.7605 46.8694 61.7605 46.8694C61.7605 46.8694 61.7605 46.8694 61.7605 46.8694V46.8694C61.7605 46.8694 61.7605 46.8694 61.7605 46.8694C61.7605 46.8694 61.7605 46.8694 61.7605 46.8694C61.7605 46.8694 61.7605 46.8694 61.7605 46.8694C61.7605 46.8694 61.7605 46.8694 61.7605 46.8694V46.8694C61.7605 46.8693 61.7605 46.8693 61.7605 46.8693C61.7605 46.8693 61.7605 46.8693 61.7605 46.8693C61.7605 46.8693 61.7605 46.8693 61.7605 46.8693V46.8693V46.8693C61.7605 46.8693 61.7605 46.8693 61.7605 46.8693C61.7605 46.8693 61.7605 46.8693 61.7605 46.8693C61.7605 46.8693 61.7605 46.8693 61.7605 46.8693V46.8693V46.8693C61.7605 46.8693 61.7605 46.8693 61.7605 46.8693C61.7605 46.8693 61.7605 46.8693 61.7605 46.8693C61.7605 46.8693 61.7605 46.8693 61.7605 46.8693V46.8693C61.7605 46.8693 61.7605 46.8693 61.7605 46.8693C61.7605 46.8693 61.7605 46.8693 61.7605 46.8693C61.7605 46.8693 61.7605 46.8693 61.7605 46.8693V46.8693C61.7605 46.8693 61.7605 46.8693 61.7605 46.8693C61.7605 46.8693 61.7605 46.8693 61.7605 46.8693C61.7605 46.8693 61.7605 46.8693 61.7605 46.8693V46.8693V46.8693C61.7605 46.8693 61.7605 46.8693 61.7605 46.8693C61.7605 46.8693 61.7605 46.8693 61.7605 46.8693V46.8693V46.8693C61.7605 46.8693 61.7605 46.8693 61.7605 46.8693C61.7605 46.8693 61.7605 46.8693 61.7605 46.8693V46.8693H57.7605ZM34.9999 23.9658C47.5594 23.9658 57.7605 34.2092 57.7605 46.8693H61.7605C61.7605 32.0218 49.7902 19.9658 34.9999 19.9658V23.9658ZM12.2393 46.8693C12.2393 34.2092 22.4404 23.9658 34.9999 23.9658V19.9658C20.2096 19.9658 8.23926 32.0218 8.23926 46.8693H12.2393ZM12.2393 46.8695C12.2393 46.8695 12.2393 46.8694 12.2393 46.8694C12.2393 46.8693 12.2393 46.8693 12.2393 46.8693H8.23926C8.23926 46.8693 8.23926 46.8694 8.23926 46.8694C8.23926 46.8694 8.23926 46.8695 8.23926 46.8695H12.2393ZM10.2393 48.8695H59.7605V44.8695H10.2393V48.8695Z" fill="#0C99A2" mask="url(#path-7-inside-4_1517_10446)"/>
<mask id="path-9-inside-5_1517_10446" fill="white">
<path fill-rule="evenodd" clip-rule="evenodd" d="M19.1512 45.1152H4.47112C0.765232 45.1152 -0.890776 49.7666 1.98132 52.1085L11.5776 59.9334C11.986 60.2664 12.223 60.7654 12.223 61.2923C12.223 62.2607 13.008 63.0457 13.9764 63.0457H19.1512H50.8495H56.0243C56.9926 63.0457 57.7777 62.2607 57.7777 61.2923C57.7777 60.7654 58.0147 60.2664 58.423 59.9334L68.0193 52.1085C70.8914 49.7666 69.2354 45.1152 65.5295 45.1152H50.8495H19.1512Z"/>
</mask>
<path d="M68.0193 52.1085L66.7554 50.5585L68.0193 52.1085ZM58.423 59.9334L59.6869 61.4834L58.423 59.9334ZM4.47112 47.1152H19.1512V43.1152H4.47112V47.1152ZM12.8415 58.3834L3.24522 50.5585L0.717428 53.6585L10.3137 61.4834L12.8415 58.3834ZM19.1512 61.0457H13.9764V65.0457H19.1512V61.0457ZM19.1512 65.0457H50.8495V61.0457H19.1512V65.0457ZM50.8495 65.0457H56.0243V61.0457H50.8495V65.0457ZM59.6869 61.4834L69.2832 53.6585L66.7554 50.5585L57.1591 58.3834L59.6869 61.4834ZM65.5295 43.1152H50.8495V47.1152H65.5295V43.1152ZM50.8495 43.1152H19.1512V47.1152H50.8495V43.1152ZM69.2832 53.6585C73.6133 50.1278 71.1166 43.1152 65.5295 43.1152V47.1152C67.3542 47.1152 68.1695 49.4054 66.7554 50.5585L69.2832 53.6585ZM56.0243 65.0457C58.0972 65.0457 59.7777 63.3653 59.7777 61.2923H55.7777C55.7777 61.1561 55.8881 61.0457 56.0243 61.0457V65.0457ZM10.223 61.2923C10.223 63.3653 11.9034 65.0457 13.9764 65.0457V61.0457C14.1126 61.0457 14.223 61.1561 14.223 61.2923H10.223ZM59.7777 61.2923C59.7777 61.3664 59.7444 61.4366 59.6869 61.4834L57.1591 58.3834C56.285 59.0962 55.7777 60.1643 55.7777 61.2923H59.7777ZM10.3137 61.4834C10.2563 61.4366 10.223 61.3664 10.223 61.2923H14.223C14.223 60.1643 13.7157 59.0962 12.8415 58.3834L10.3137 61.4834ZM4.47112 43.1152C-1.11599 43.1152 -3.61266 50.1278 0.717428 53.6585L3.24522 50.5585C1.8311 49.4054 2.64645 47.1152 4.47112 47.1152V43.1152Z" fill="#0C99A2" mask="url(#path-9-inside-5_1517_10446)"/>
<path d="M35.2858 14.9922C35.2858 14.9922 34.1001 13.4979 36.5755 10.0113C39.051 6.52462 35.2858 1.0456 35.2858 1.0456" stroke="#0C99A2" stroke-width="2" stroke-linecap="round"/>
<path d="M23.4001 19.9727C23.4001 19.9727 22.2143 18.4784 24.6898 14.9917C27.1653 11.5051 23.4001 6.02607 23.4001 6.02607" stroke="#0C99A2" stroke-width="2" stroke-linecap="round"/>
<path d="M46.1813 19.9727C46.1813 19.9727 44.9956 18.4784 47.4711 14.9917C49.9465 11.5051 46.1813 6.02607 46.1813 6.02607" stroke="#0C99A2" stroke-width="2" stroke-linecap="round"/>
</svg>
