<svg width="80" height="73" viewBox="0 0 80 73" fill="none" xmlns="http://www.w3.org/2000/svg">
<rect x="0.366025" y="-1.36603" width="13" height="13" rx="3" transform="matrix(0.866025 -0.5 -0.5 -0.866025 36.866 18.6242)" stroke="#0C99A2" stroke-width="2"/>
<rect x="1" y="-1" width="13" height="13" rx="6.5" transform="matrix(1 0 0 -1 12 32.5)" stroke="#0C99A2" stroke-width="2"/>
<path d="M66.5 26.634C67.1667 27.0189 67.1667 27.9811 66.5 28.366L56 34.4282C55.3333 34.8131 54.5 34.332 54.5 33.5622L54.5 21.4378C54.5 20.668 55.3333 20.1869 56 20.5718L66.5 26.634Z" stroke="#0C99A2" stroke-width="2"/>
<mask id="path-4-inside-1_1504_27176" fill="white">
<path fill-rule="evenodd" clip-rule="evenodd" d="M21.6239 51.5H4.57099C0.281765 51.5 -1.63676 56.882 1.68529 59.5952L12.8429 68.7079C13.3166 69.0947 13.5913 69.6739 13.5913 70.2855C13.5913 71.4104 14.5033 72.3224 15.6282 72.3224H21.6239H58.3754H64.371C65.4959 72.3224 66.4079 71.4104 66.4079 70.2855C66.4079 69.6739 66.6827 69.0947 67.1563 68.7079L78.3139 59.5952C81.636 56.882 79.7175 51.5 75.4282 51.5H58.3754H21.6239Z"/>
</mask>
<path d="M78.3139 59.5952L77.0488 58.0462L78.3139 59.5952ZM67.1563 68.7079L68.4214 70.2569L67.1563 68.7079ZM4.57099 53.5H21.6239V49.5H4.57099V53.5ZM14.108 67.1589L2.95042 58.0462L0.420172 61.1442L11.5778 70.2569L14.108 67.1589ZM21.6239 70.3224H15.6282V74.3224H21.6239V70.3224ZM21.6239 74.3224H58.3754V70.3224H21.6239V74.3224ZM58.3754 74.3224H64.371V70.3224H58.3754V74.3224ZM68.4214 70.2569L79.5791 61.1442L77.0488 58.0462L65.8912 67.1589L68.4214 70.2569ZM75.4282 49.5H58.3754V53.5H75.4282V49.5ZM58.3754 49.5H21.6239V53.5H58.3754V49.5ZM79.5791 61.1442C84.3575 57.2415 81.5979 49.5 75.4282 49.5V53.5C77.837 53.5 78.9145 56.5225 77.0488 58.0462L79.5791 61.1442ZM64.371 74.3224C66.6005 74.3224 68.4079 72.515 68.4079 70.2855H64.4079C64.4079 70.2943 64.4065 70.2976 64.4058 70.2992C64.4046 70.3022 64.4019 70.3068 64.3971 70.3116C64.3923 70.3164 64.3877 70.3191 64.3847 70.3203C64.3831 70.321 64.3798 70.3224 64.371 70.3224V74.3224ZM11.5913 70.2855C11.5913 72.515 13.3987 74.3224 15.6282 74.3224V70.3224C15.6195 70.3224 15.6161 70.321 15.6145 70.3203C15.6115 70.3191 15.6069 70.3164 15.6022 70.3116C15.5974 70.3068 15.5947 70.3022 15.5934 70.2992C15.5927 70.2976 15.5913 70.2943 15.5913 70.2855H11.5913ZM68.4079 70.2855C68.4079 70.2744 68.4129 70.2639 68.4214 70.2569L65.8912 67.1589C64.9525 67.9256 64.4079 69.0735 64.4079 70.2855H68.4079ZM11.5778 70.2569C11.5864 70.2639 11.5913 70.2744 11.5913 70.2855H15.5913C15.5913 69.0735 15.0468 67.9256 14.108 67.1589L11.5778 70.2569ZM4.57099 49.5C-1.59868 49.5 -4.3583 57.2415 0.420172 61.1442L2.95042 58.0462C1.08478 56.5225 2.16221 53.5 4.57099 53.5V49.5Z" fill="#0C99A2" mask="url(#path-4-inside-1_1504_27176)"/>
</svg>
