<svg width="80" height="73" viewBox="0 0 80 73" fill="none" xmlns="http://www.w3.org/2000/svg">
<path d="M15.4167 27.1667H9.25V58H64.75V27.1667H60.125M47.7917 24.0833C48.9984 24.7811 50.0318 25.7426 50.8147 26.8959C51.5975 28.0492 52.1096 29.3645 52.3127 30.7436C52.5157 32.1227 52.4044 33.5298 51.9872 34.8598C51.5699 36.1898 50.8575 37.4083 49.9031 38.4243C48.9487 39.4402 47.7771 40.2273 46.4757 40.7268C45.1743 41.2263 43.7769 41.4251 42.3878 41.3086C40.9988 41.192 39.6541 40.763 38.4541 40.0537C37.2542 39.3443 36.2301 38.373 35.4583 37.2122M40.0833 21C40.0833 23.4533 39.1088 25.806 37.3741 27.5407C35.6394 29.2754 33.2866 30.25 30.8333 30.25C28.3801 30.25 26.0273 29.2754 24.2926 27.5407C22.5579 25.806 21.5833 23.4533 21.5833 21C21.5833 18.5467 22.5579 16.194 24.2926 14.4593C26.0273 12.7246 28.3801 11.75 30.8333 11.75C33.2866 11.75 35.6394 12.7246 37.3741 14.4593C39.1088 16.194 40.0833 18.5467 40.0833 21Z" stroke="#0C99A2" stroke-width="2" stroke-linecap="round" stroke-linejoin="round"/>
<path d="M65 33.916H71.5V64.7493H16V57.9995" stroke="#0C99A2" stroke-width="2" stroke-linecap="round" stroke-linejoin="round"/>
</svg>
