<svg width="70" height="63" viewBox="0 0 70 63" fill="none" xmlns="http://www.w3.org/2000/svg">
<path d="M14.9338 46.0585V49.3882C14.9338 51.1544 15.6366 52.8483 16.8875 54.0971C18.1384 55.346 19.8349 56.0476 21.604 56.0476C23.373 56.0476 25.0696 55.346 26.3205 54.0971C27.5714 52.8483 28.2741 51.1544 28.2741 49.3882V32.7397H18.2689C15.6153 32.7397 13.0705 33.7921 11.1941 35.6655C9.31779 37.5388 8.26367 40.0795 8.26367 42.7288V46.0585H45.6165C46.8526 42.4929 46.6675 41.0903 49.6186 38.7333C52.5697 36.3762 54.2877 36.4734 58.2898 36.0694V24.0825C58.2898 22.3163 58.2066 20.6699 56.9557 19.421C55.7048 18.1721 49.3866 18.7551 47.6175 18.7551H46.9505H46.2835M51.6196 49.3882C51.6196 51.1544 52.3224 52.8483 53.5733 54.0971C54.8242 55.346 56.5207 56.0476 58.2898 56.0476C60.0588 56.0476 61.7554 55.346 63.0063 54.0971C64.2572 52.8483 64.9599 51.1544 64.9599 49.3882C64.9599 47.622 64.2572 45.9282 63.0063 44.6793C61.7554 43.4304 60.0588 42.7288 58.2898 42.7288C56.5207 42.7288 54.8242 43.4304 53.5733 44.6793C52.3224 45.9282 51.6196 47.622 51.6196 49.3882Z" stroke="#0C99A2" stroke-width="2" stroke-linecap="round" stroke-linejoin="round"/>
<path d="M8.26367 21.4198C8.26367 15.9031 12.7433 11.4307 18.2689 11.4307C23.7944 11.4307 28.2741 15.9031 28.2741 21.4198V28.7451H8.26367V21.4198Z" stroke="#0C99A2" stroke-width="2" stroke-linecap="round" stroke-linejoin="round"/>
<path d="M20.9377 11.4302V10.0983C20.9377 9.39186 20.6566 8.71432 20.1562 8.21477C19.6559 7.71522 18.9772 7.43457 18.2696 7.43457C17.562 7.43457 16.8834 7.71522 16.383 8.21477C15.8827 8.71432 15.6016 9.39186 15.6016 10.0983V11.4302" stroke="#0C99A2" stroke-width="2"/>
</svg>
