<svg width="26" height="18" viewBox="0 0 26 18" fill="none" xmlns="http://www.w3.org/2000/svg">
<g clip-path="url(#clip0_1468_15421)">
<path d="M16.315 2.94238H9.67285V14.8785H16.315V2.94238Z" fill="#FF5F00"/>
<path d="M10.0941 8.9117C10.093 7.76223 10.3534 6.62759 10.8557 5.59366C11.3579 4.55973 12.0888 3.65361 12.993 2.9439C11.8732 2.06382 10.5284 1.51654 9.1123 1.36461C7.69618 1.21267 6.26587 1.46222 4.98487 2.08473C3.70386 2.70724 2.62383 3.67759 1.86822 4.88489C1.11262 6.09218 0.711914 7.4877 0.711914 8.91195C0.711914 10.3362 1.11262 11.7317 1.86822 12.939C2.62383 14.1463 3.70386 15.1167 4.98487 15.7392C6.26587 16.3617 7.69618 16.6112 9.1123 16.4593C10.5284 16.3074 11.8732 15.7601 12.993 14.88C12.0889 14.1702 11.358 13.2641 10.8558 12.2302C10.3535 11.1963 10.0931 10.0612 10.0941 8.9117Z" fill="#EB001B"/>
<path d="M25.2745 8.91139C25.2745 10.3357 24.8738 11.7312 24.1181 12.9385C23.3625 14.1458 22.2824 15.1161 21.0014 15.7386C19.7204 16.3611 18.29 16.6106 16.8739 16.4586C15.4578 16.3066 14.1129 15.7593 12.9932 14.8792C13.8967 14.1688 14.6272 13.2625 15.1295 12.2287C15.6318 11.1949 15.8927 10.0605 15.8927 8.91114C15.8927 7.76176 15.6318 6.62739 15.1295 5.59357C14.6272 4.55975 13.8967 3.65347 12.9932 2.94309C14.1129 2.06296 15.4578 1.51563 16.8739 1.36365C18.29 1.21168 19.7204 1.46119 21.0014 2.08368C22.2824 2.70616 23.3625 3.6765 24.1181 4.8838C24.8738 6.09109 25.2745 7.48712 25.2745 8.91139ZM24.5503 13.6152V13.3707H24.6485V13.3208H24.3975V13.3707H24.4958V13.6157L24.5503 13.6152ZM25.0376 13.6152V13.3203H24.961L24.8723 13.5229L24.7836 13.3203H24.707V13.6152H24.7614V13.3934L24.8446 13.5849H24.901L24.9842 13.3929V13.6157H25.0386L25.0376 13.6152Z" fill="#F79E1B"/>
</g>
<defs>
<clipPath id="clip0_1468_15421">
<rect width="24.7527" height="17.6411" fill="white" transform="translate(0.711914 0.179688)"/>
</clipPath>
</defs>
</svg>
