<svg width="80" height="82" viewBox="0 0 80 82" fill="none" xmlns="http://www.w3.org/2000/svg">
<mask id="path-1-inside-1_1299_19783" fill="white">
<path fill-rule="evenodd" clip-rule="evenodd" d="M26.4395 31.5629H52.2864C52.2863 24.3242 46.5003 18.4561 39.3629 18.4561C32.2255 18.4561 26.4395 24.3242 26.4395 31.5629Z"/>
</mask>
<path d="M26.4395 31.5629L25.6314 31.5629L25.6314 32.371H26.4395V31.5629ZM52.2864 31.5629V32.371H53.0944L53.0944 31.5629L52.2864 31.5629ZM26.4395 32.371H52.2864V30.7548H26.4395V32.371ZM39.3629 19.2641C46.0433 19.2641 51.4782 24.7597 51.4783 31.5629L53.0944 31.5629C53.0944 23.8887 46.9573 17.648 39.3629 17.648V19.2641ZM27.2475 31.5629C27.2476 24.7597 32.6825 19.2641 39.3629 19.2641V17.648C31.7685 17.648 25.6314 23.8887 25.6314 31.5629L27.2475 31.5629Z" fill="white" mask="url(#path-1-inside-1_1299_19783)"/>
<mask id="path-3-inside-2_1299_19783" fill="white">
<path fill-rule="evenodd" clip-rule="evenodd" d="M49.0551 31.5627C49.0551 31.5627 49.0551 31.5627 49.0551 31.5626C49.0551 26.1336 44.7156 21.7324 39.3625 21.7324C34.0094 21.7324 29.6699 26.1336 29.6699 31.5626C29.6699 31.5627 29.6699 31.5627 29.6699 31.5627H49.0551Z"/>
</mask>
<path d="M49.0551 31.5627V32.3707H49.8632V31.5627H49.0551ZM29.6699 31.5627H28.8618V32.3707H29.6699V31.5627ZM48.247 31.5626C48.247 31.5626 48.247 31.5626 48.247 31.5626C48.247 31.5626 48.247 31.5626 48.247 31.5626V31.5626V31.5626C48.247 31.5626 48.247 31.5626 48.247 31.5626C48.247 31.5626 48.247 31.5626 48.247 31.5626C48.247 31.5626 48.247 31.5626 48.247 31.5626C48.247 31.5626 48.247 31.5626 48.247 31.5627V31.5627V31.5627C48.247 31.5627 48.247 31.5627 48.247 31.5627C48.247 31.5627 48.247 31.5627 48.247 31.5627C48.247 31.5627 48.247 31.5627 48.247 31.5627C48.247 31.5627 48.247 31.5627 48.247 31.5627V31.5627V31.5627C48.247 31.5627 48.247 31.5627 48.247 31.5627C48.247 31.5627 48.247 31.5627 48.247 31.5627C48.247 31.5627 48.247 31.5627 48.247 31.5627C48.247 31.5627 48.247 31.5627 48.247 31.5627V31.5627V31.5627C48.247 31.5627 48.247 31.5627 48.247 31.5627C48.247 31.5627 48.247 31.5627 48.247 31.5627H49.8632C49.8632 31.5627 49.8632 31.5627 49.8632 31.5627C49.8632 31.5627 49.8632 31.5627 49.8632 31.5627V31.5627V31.5627C49.8632 31.5627 49.8632 31.5627 49.8632 31.5627C49.8632 31.5627 49.8632 31.5627 49.8632 31.5627C49.8632 31.5627 49.8632 31.5627 49.8632 31.5627C49.8632 31.5627 49.8632 31.5627 49.8632 31.5627V31.5627V31.5627C49.8632 31.5627 49.8632 31.5627 49.8632 31.5627C49.8632 31.5627 49.8632 31.5627 49.8632 31.5627C49.8632 31.5627 49.8632 31.5627 49.8632 31.5627C49.8632 31.5627 49.8632 31.5627 49.8632 31.5627V31.5627V31.5627C49.8632 31.5626 49.8632 31.5626 49.8632 31.5626C49.8632 31.5626 49.8632 31.5626 49.8632 31.5626C49.8632 31.5626 49.8632 31.5626 49.8632 31.5626C49.8632 31.5626 49.8632 31.5626 49.8632 31.5626V31.5626V31.5626C49.8632 31.5626 49.8632 31.5626 49.8632 31.5626C49.8632 31.5626 49.8632 31.5626 49.8632 31.5626H48.247ZM39.3625 22.5405C44.2586 22.5405 48.247 26.5691 48.247 31.5626H49.8632C49.8632 25.6981 45.1726 20.9243 39.3625 20.9243V22.5405ZM30.478 31.5626C30.478 26.5691 34.4664 22.5405 39.3625 22.5405V20.9243C33.5524 20.9243 28.8618 25.6981 28.8618 31.5626H30.478ZM30.478 31.5627C30.478 31.5627 30.478 31.5627 30.478 31.5627C30.478 31.5626 30.478 31.5626 30.478 31.5626H28.8618C28.8618 31.5626 28.8618 31.5627 28.8618 31.5627C28.8618 31.5627 28.8618 31.5627 28.8618 31.5627H30.478ZM29.6699 32.3707H49.0551V30.7546H29.6699V32.3707Z" fill="white" mask="url(#path-3-inside-2_1299_19783)"/>
<mask id="path-5-inside-3_1299_19783" fill="white">
<path fill-rule="evenodd" clip-rule="evenodd" d="M45.1786 31.2356C45.1786 31.2356 45.1786 31.2356 45.1786 31.2356C45.1786 27.7972 42.4303 25.0098 39.04 25.0098C35.6497 25.0098 32.9014 27.7972 32.9014 31.2356C32.9014 31.2356 32.9014 31.2356 32.9014 31.2356H45.1786Z"/>
</mask>
<path d="M45.1786 31.2356V32.0437H45.9867V31.2356H45.1786ZM32.9014 31.2356H32.0933V32.0437H32.9014V31.2356ZM44.3706 31.2356C44.3706 31.2356 44.3706 31.2356 44.3706 31.2356C44.3706 31.2356 44.3706 31.2356 44.3706 31.2356C44.3706 31.2356 44.3706 31.2356 44.3706 31.2356V31.2356V31.2356V31.2356C44.3706 31.2356 44.3706 31.2356 44.3706 31.2356C44.3706 31.2356 44.3706 31.2356 44.3706 31.2356C44.3706 31.2356 44.3706 31.2356 44.3706 31.2356C44.3706 31.2356 44.3706 31.2356 44.3706 31.2356C44.3706 31.2356 44.3706 31.2356 44.3706 31.2356V31.2356V31.2356C44.3706 31.2356 44.3706 31.2356 44.3706 31.2356C44.3706 31.2356 44.3706 31.2356 44.3706 31.2356C44.3706 31.2356 44.3706 31.2356 44.3706 31.2356C44.3706 31.2356 44.3706 31.2356 44.3706 31.2356V31.2356V31.2356C44.3706 31.2356 44.3706 31.2356 44.3706 31.2356C44.3706 31.2356 44.3706 31.2356 44.3706 31.2356C44.3706 31.2356 44.3706 31.2356 44.3706 31.2356C44.3706 31.2356 44.3706 31.2356 44.3706 31.2356V31.2356V31.2356C44.3706 31.2356 44.3706 31.2356 44.3706 31.2356C44.3706 31.2356 44.3706 31.2356 44.3706 31.2356C44.3706 31.2356 44.3706 31.2356 44.3706 31.2356V31.2356V31.2356C44.3706 31.2356 44.3706 31.2356 44.3706 31.2356C44.3706 31.2356 44.3706 31.2356 44.3706 31.2356C44.3706 31.2356 44.3706 31.2356 44.3706 31.2356V31.2356V31.2356C44.3706 31.2356 44.3706 31.2356 44.3706 31.2356C44.3706 31.2356 44.3706 31.2356 44.3706 31.2356C44.3706 31.2356 44.3706 31.2356 44.3706 31.2356V31.2356V31.2356C44.3706 31.2356 44.3706 31.2356 44.3706 31.2356C44.3706 31.2356 44.3706 31.2356 44.3706 31.2356C44.3706 31.2356 44.3706 31.2356 44.3706 31.2356V31.2356V31.2356C44.3706 31.2356 44.3706 31.2356 44.3706 31.2356C44.3706 31.2356 44.3706 31.2356 44.3706 31.2356C44.3706 31.2356 44.3706 31.2356 44.3706 31.2356V31.2356V31.2356C44.3706 31.2356 44.3706 31.2356 44.3706 31.2356C44.3706 31.2356 44.3706 31.2356 44.3706 31.2356C44.3706 31.2356 44.3706 31.2356 44.3706 31.2356V31.2356V31.2356C44.3706 31.2356 44.3706 31.2356 44.3706 31.2356C44.3706 31.2356 44.3706 31.2356 44.3706 31.2356C44.3706 31.2356 44.3706 31.2356 44.3706 31.2356V31.2356V31.2356C44.3706 31.2356 44.3706 31.2356 44.3706 31.2356C44.3706 31.2356 44.3706 31.2356 44.3706 31.2356C44.3706 31.2356 44.3706 31.2356 44.3706 31.2356C44.3706 31.2356 44.3706 31.2356 44.3706 31.2356V31.2356V31.2356C44.3706 31.2356 44.3706 31.2356 44.3706 31.2356C44.3706 31.2356 44.3706 31.2356 44.3706 31.2356C44.3706 31.2356 44.3706 31.2356 44.3706 31.2356C44.3706 31.2356 44.3706 31.2356 44.3706 31.2356V31.2356V31.2356C44.3706 31.2356 44.3706 31.2356 44.3706 31.2356C44.3706 31.2356 44.3706 31.2356 44.3706 31.2356C44.3706 31.2356 44.3706 31.2356 44.3706 31.2356C44.3706 31.2356 44.3706 31.2356 44.3706 31.2356C44.3706 31.2356 44.3706 31.2356 44.3706 31.2356V31.2356V31.2356V31.2356C44.3706 31.2356 44.3706 31.2356 44.3706 31.2356C44.3706 31.2356 44.3706 31.2356 44.3706 31.2356C44.3706 31.2356 44.3706 31.2356 44.3706 31.2356H45.9867C45.9867 31.2356 45.9867 31.2356 45.9867 31.2356C45.9867 31.2356 45.9867 31.2356 45.9867 31.2356C45.9867 31.2356 45.9867 31.2356 45.9867 31.2356V31.2356V31.2356V31.2356C45.9867 31.2356 45.9867 31.2356 45.9867 31.2356C45.9867 31.2356 45.9867 31.2356 45.9867 31.2356C45.9867 31.2356 45.9867 31.2356 45.9867 31.2356C45.9867 31.2356 45.9867 31.2356 45.9867 31.2356C45.9867 31.2356 45.9867 31.2356 45.9867 31.2356V31.2356V31.2356C45.9867 31.2356 45.9867 31.2356 45.9867 31.2356C45.9867 31.2356 45.9867 31.2356 45.9867 31.2356C45.9867 31.2356 45.9867 31.2356 45.9867 31.2356C45.9867 31.2356 45.9867 31.2356 45.9867 31.2356V31.2356V31.2356C45.9867 31.2356 45.9867 31.2356 45.9867 31.2356C45.9867 31.2356 45.9867 31.2356 45.9867 31.2356C45.9867 31.2356 45.9867 31.2356 45.9867 31.2356C45.9867 31.2356 45.9867 31.2356 45.9867 31.2356V31.2356V31.2356C45.9867 31.2356 45.9867 31.2356 45.9867 31.2356C45.9867 31.2356 45.9867 31.2356 45.9867 31.2356C45.9867 31.2356 45.9867 31.2356 45.9867 31.2356V31.2356V31.2356C45.9867 31.2356 45.9867 31.2356 45.9867 31.2356C45.9867 31.2356 45.9867 31.2356 45.9867 31.2356C45.9867 31.2356 45.9867 31.2356 45.9867 31.2356V31.2356V31.2356C45.9867 31.2356 45.9867 31.2356 45.9867 31.2356C45.9867 31.2356 45.9867 31.2356 45.9867 31.2356C45.9867 31.2356 45.9867 31.2356 45.9867 31.2356V31.2356V31.2356C45.9867 31.2356 45.9867 31.2356 45.9867 31.2356C45.9867 31.2356 45.9867 31.2356 45.9867 31.2356C45.9867 31.2356 45.9867 31.2356 45.9867 31.2356V31.2356V31.2356C45.9867 31.2356 45.9867 31.2356 45.9867 31.2356C45.9867 31.2356 45.9867 31.2356 45.9867 31.2356C45.9867 31.2356 45.9867 31.2356 45.9867 31.2356V31.2356V31.2356C45.9867 31.2356 45.9867 31.2356 45.9867 31.2356C45.9867 31.2356 45.9867 31.2356 45.9867 31.2356C45.9867 31.2356 45.9867 31.2356 45.9867 31.2356V31.2356V31.2356C45.9867 31.2356 45.9867 31.2356 45.9867 31.2356C45.9867 31.2356 45.9867 31.2356 45.9867 31.2356C45.9867 31.2356 45.9867 31.2356 45.9867 31.2356V31.2356V31.2356C45.9867 31.2356 45.9867 31.2356 45.9867 31.2356C45.9867 31.2356 45.9867 31.2356 45.9867 31.2356C45.9867 31.2356 45.9867 31.2356 45.9867 31.2356C45.9867 31.2356 45.9867 31.2356 45.9867 31.2356V31.2356V31.2356C45.9867 31.2356 45.9867 31.2356 45.9867 31.2356C45.9867 31.2356 45.9867 31.2356 45.9867 31.2356C45.9867 31.2356 45.9867 31.2356 45.9867 31.2356C45.9867 31.2356 45.9867 31.2356 45.9867 31.2356V31.2356V31.2356C45.9867 31.2356 45.9867 31.2356 45.9867 31.2356C45.9867 31.2356 45.9867 31.2356 45.9867 31.2356C45.9867 31.2356 45.9867 31.2356 45.9867 31.2356C45.9867 31.2356 45.9867 31.2356 45.9867 31.2356C45.9867 31.2356 45.9867 31.2356 45.9867 31.2356V31.2356V31.2356V31.2356C45.9867 31.2356 45.9867 31.2356 45.9867 31.2356C45.9867 31.2356 45.9867 31.2356 45.9867 31.2356C45.9867 31.2356 45.9867 31.2356 45.9867 31.2356H44.3706ZM39.04 25.8178C41.9733 25.8178 44.3706 28.2327 44.3706 31.2356H45.9867C45.9867 27.3616 42.8873 24.2017 39.04 24.2017V25.8178ZM33.7094 31.2356C33.7094 28.2327 36.1067 25.8178 39.04 25.8178V24.2017C35.1927 24.2017 32.0933 27.3616 32.0933 31.2356H33.7094ZM33.7094 31.2356C33.7094 31.2356 33.7094 31.2356 33.7094 31.2356C33.7094 31.2356 33.7094 31.2356 33.7094 31.2356H32.0933C32.0933 31.2356 32.0933 31.2356 32.0933 31.2356C32.0933 31.2356 32.0933 31.2356 32.0933 31.2356H33.7094ZM32.9014 32.0437H45.1786V30.4275H32.9014V32.0437Z" fill="white" mask="url(#path-5-inside-3_1299_19783)"/>
<mask id="path-7-inside-4_1299_19783" fill="white">
<path fill-rule="evenodd" clip-rule="evenodd" d="M23.208 31.5633H55.5166C55.5166 22.5149 48.2841 15.1797 39.3623 15.1797C30.4406 15.1797 23.2081 22.5149 23.208 31.5633Z"/>
</mask>
<path d="M23.208 31.5633L22.3999 31.5633L22.3999 32.3714H23.208V31.5633ZM55.5166 31.5633V32.3714H56.3247L56.3247 31.5633L55.5166 31.5633ZM23.208 32.3714H55.5166V30.7552H23.208V32.3714ZM39.3623 15.9878C47.8271 15.9878 54.7085 22.9504 54.7086 31.5633L56.3247 31.5633C56.3247 22.0794 48.7411 14.3716 39.3623 14.3716V15.9878ZM24.0161 31.5633C24.0161 22.9504 30.8976 15.9878 39.3623 15.9878V14.3716C29.9836 14.3716 22.4 22.0794 22.3999 31.5633L24.0161 31.5633Z" fill="white" mask="url(#path-7-inside-4_1299_19783)"/>
<mask id="path-9-inside-5_1299_19783" fill="white">
<path fill-rule="evenodd" clip-rule="evenodd" d="M29.0238 30.4102H19.4974C17.051 30.4102 15.9524 33.4763 17.842 35.03L24.079 40.1584C24.346 40.3778 24.5007 40.7053 24.5007 41.0509C24.5007 41.6891 25.018 42.2064 25.6562 42.2064H29.0238H49.7014H53.0691C53.7072 42.2064 54.2246 41.6891 54.2246 41.0509C54.2246 40.7053 54.3793 40.3778 54.6462 40.1584L60.8833 35.03C62.7729 33.4763 61.6742 30.4102 59.2278 30.4102H49.7014H29.0238Z"/>
</mask>
<path d="M54.6462 40.1584L53.6198 38.91L54.6462 40.1584ZM17.842 35.03L16.8156 36.2784L17.842 35.03ZM19.4974 32.0263H29.0238V28.794H19.4974V32.0263ZM25.1055 38.91L18.8685 33.7817L16.8156 36.2784L23.0526 41.4067L25.1055 38.91ZM29.0238 40.5903H25.6562V43.8226H29.0238V40.5903ZM29.0238 43.8226H49.7014V40.5903H29.0238V43.8226ZM49.7014 43.8226H53.0691V40.5903H49.7014V43.8226ZM55.6727 41.4067L61.9097 36.2784L59.8568 33.7817L53.6198 38.91L55.6727 41.4067ZM59.2278 28.794H49.7014V32.0263H59.2278V28.794ZM49.7014 28.794H29.0238V32.0263H49.7014V28.794ZM61.9097 36.2784C64.971 33.7612 63.1911 28.794 59.2278 28.794V32.0263C60.1573 32.0263 60.5748 33.1913 59.8568 33.7817L61.9097 36.2784ZM53.0691 43.8226C54.5998 43.8226 55.8407 42.5817 55.8407 41.0509H52.6084C52.6084 40.7965 52.8147 40.5903 53.0691 40.5903V43.8226ZM22.8845 41.0509C22.8845 42.5817 24.1254 43.8226 25.6562 43.8226V40.5903C25.9106 40.5903 26.1168 40.7965 26.1168 41.0509H22.8845ZM55.8407 41.0509C55.8407 41.1887 55.7791 41.3192 55.6727 41.4067L53.6198 38.91C52.9795 39.4365 52.6084 40.2219 52.6084 41.0509H55.8407ZM23.0526 41.4067C22.9462 41.3192 22.8845 41.1887 22.8845 41.0509H26.1168C26.1168 40.2219 25.7458 39.4365 25.1055 38.91L23.0526 41.4067ZM19.4974 28.794C15.5341 28.794 13.7542 33.7612 16.8156 36.2784L18.8685 33.7817C18.1505 33.1913 18.5679 32.0263 19.4974 32.0263V28.794Z" fill="white" mask="url(#path-9-inside-5_1299_19783)"/>
<path d="M39.5476 10.5918C39.5476 10.5918 38.7738 9.60877 40.3892 7.31506C42.0046 5.02134 39.5476 1.41692 39.5476 1.41692" stroke="white" stroke-width="0.808081" stroke-linecap="round"/>
<path d="M31.7936 13.8682C31.7936 13.8682 31.0198 12.8851 32.6353 10.5914C34.2507 8.2977 31.7936 4.69329 31.7936 4.69329" stroke="white" stroke-width="0.808081" stroke-linecap="round"/>
<path d="M46.656 13.8682C46.656 13.8682 45.8822 12.8851 47.4976 10.5914C49.113 8.2977 46.656 4.69329 46.656 4.69329" stroke="white" stroke-width="0.808081" stroke-linecap="round"/>
<path d="M45.1787 30.4092L60.6767 23.8557" stroke="white" stroke-width="1.61616" stroke-linecap="round"/>
<path d="M0.816 61.2423C1.22133 61.1783 1.49867 61.0503 1.648 60.8583C1.79733 60.6663 1.872 60.3356 1.872 59.8663L1.888 53.7383C1.888 53.4076 1.85067 53.189 1.776 53.0823C1.70133 52.965 1.54667 52.9063 1.312 52.9063L0.816 52.9223L0.736 52.7943L0.864 51.8663L3.008 51.8823C3.30667 51.8823 3.73867 51.8663 4.304 51.8343C4.88 51.8023 5.25867 51.781 5.44 51.7703L5.328 52.8743C4.96533 52.917 4.69867 52.981 4.528 53.0663C4.368 53.141 4.26133 53.253 4.208 53.4023C4.16533 53.541 4.13333 53.765 4.112 54.0743C3.99467 55.6743 3.936 57.6316 3.936 59.9463C3.936 60.2343 3.96267 60.4476 4.016 60.5863C4.06933 60.7143 4.16533 60.805 4.304 60.8583C4.44267 60.901 4.656 60.9223 4.944 60.9223C5.47733 60.9223 5.872 60.8636 6.128 60.7463C6.39467 60.629 6.592 60.405 6.72 60.0743C6.848 59.7436 6.95467 59.221 7.04 58.5063L8.336 58.3623L8.448 58.5223C8.416 58.725 8.352 59.1836 8.256 59.8983C8.17067 60.6023 8.096 61.3436 8.032 62.1223L7.872 62.2823C7.584 62.2716 6.96 62.245 6 62.2023C5.04 62.1703 4.17067 62.1543 3.392 62.1543C2.80533 62.1543 2.24533 62.1756 1.712 62.2183C1.17867 62.261 0.837333 62.293 0.688 62.3143L0.816 61.2423ZM14.4791 62.1543L14.5591 61.2103C14.9218 61.1783 15.1831 61.1463 15.3431 61.1143C15.5138 61.0716 15.6311 61.0183 15.6951 60.9543C15.7591 60.8796 15.7911 60.773 15.7911 60.6343C15.7911 60.5063 15.7645 60.3196 15.7111 60.0743L15.3751 58.8423C14.8205 58.821 14.3298 58.8103 13.9031 58.8103C13.7111 58.8103 13.3111 58.837 12.7031 58.8903L12.3671 58.9223L11.9671 60.1543C11.9031 60.389 11.8711 60.5543 11.8711 60.6503C11.8711 60.8423 11.9245 60.9756 12.0311 61.0503C12.1485 61.125 12.3458 61.1623 12.6231 61.1623H13.3111L13.3911 61.2743L13.2791 62.2503C13.1298 62.2396 12.8098 62.2183 12.3191 62.1863C11.8285 62.165 11.3698 62.1543 10.9431 62.1543C10.4951 62.1543 10.0898 62.1596 9.72712 62.1703C9.37512 62.181 9.14046 62.1916 9.02312 62.2023L9.13512 61.1623C9.38046 61.1196 9.58312 61.0183 9.74312 60.8583C9.90312 60.6983 10.0525 60.437 10.1911 60.0743L13.0551 51.9623L15.5031 51.7063L15.6791 51.7863C15.8391 52.3943 16.1698 53.6423 16.6711 55.5303C17.1831 57.4076 17.6205 58.917 17.9831 60.0583C18.1005 60.4423 18.2498 60.7143 18.4311 60.8743C18.6125 61.0343 18.8845 61.1303 19.2471 61.1623L19.3111 61.2743L19.1991 62.2023C19.0605 62.1916 18.7991 62.181 18.4151 62.1703C18.0311 62.1596 17.6418 62.1543 17.2471 62.1543C16.6818 62.1543 16.1271 62.1703 15.5831 62.2023C15.0498 62.245 14.7085 62.2716 14.5591 62.2823L14.4791 62.1543ZM13.9031 57.5783C14.0205 57.5783 14.4151 57.5623 15.0871 57.5303L14.1431 53.9623H13.9351L12.7511 57.5783H13.9031ZM23.7084 61.2263C24.1457 61.1516 24.439 61.0236 24.5884 60.8423C24.7377 60.661 24.8124 60.341 24.8124 59.8823V53.7703C24.8124 53.429 24.775 53.1996 24.7004 53.0823C24.6364 52.965 24.503 52.9063 24.3004 52.9063C24.183 52.9063 24.071 52.9116 23.9644 52.9223C23.8577 52.933 23.7884 52.9383 23.7564 52.9383L23.6604 52.8103L23.7884 51.8663L25.8044 51.8823C26.2097 51.8823 26.6577 51.877 27.1484 51.8663C27.6497 51.845 28.0017 51.829 28.2044 51.8183C29.5697 51.8183 30.551 52.1063 31.1484 52.6823C31.7457 53.2583 32.0444 53.989 32.0444 54.8743C32.0444 55.5036 31.863 56.101 31.5004 56.6663C31.1484 57.221 30.679 57.669 30.0924 58.0103C29.5057 58.341 28.8817 58.5063 28.2204 58.5063H26.8764L26.8444 59.7223C26.8444 60.1383 26.8604 60.4423 26.8924 60.6343C26.935 60.8263 27.0044 60.9596 27.1004 61.0343C27.207 61.0983 27.3724 61.1303 27.5964 61.1303C27.7457 61.1303 27.8897 61.125 28.0284 61.1143C28.167 61.1036 28.263 61.0983 28.3164 61.0983L28.3644 61.1783L28.2204 62.2023C28.071 62.2023 27.7937 62.1916 27.3884 62.1703C26.9937 62.1596 26.6097 62.1543 26.2364 62.1543C25.8737 62.1543 25.3884 62.1703 24.7804 62.2023C24.183 62.2343 23.783 62.261 23.5804 62.2823L23.7084 61.2263ZM28.3324 57.3063C29.3244 57.093 29.8204 56.3623 29.8204 55.1143C29.8204 54.4316 29.6284 53.9356 29.2444 53.6263C28.8604 53.3063 28.2524 53.1463 27.4204 53.1463C27.271 53.1463 27.175 53.1623 27.1324 53.1943C27.1004 53.2156 27.079 53.2903 27.0684 53.4183C27.0044 54.3783 26.951 55.605 26.9084 57.0983L28.3324 57.3063ZM41.5351 59.1303C41.3645 59.9623 41.2205 60.949 41.1031 62.0903L40.9431 62.2663C38.9058 62.1916 37.2471 62.1543 35.9671 62.1543C35.0711 62.1543 34.1591 62.2076 33.2311 62.3143L33.3431 61.2423C33.7911 61.1783 34.0951 61.0503 34.2551 60.8583C34.4151 60.6663 34.4951 60.3356 34.4951 59.8663L34.5111 53.7703C34.5111 53.4183 34.4791 53.189 34.4151 53.0823C34.3511 52.965 34.2125 52.9063 33.9991 52.9063C33.8605 52.9063 33.6951 52.917 33.5031 52.9383L33.4071 52.7943L33.5351 51.8343H33.8551C34.6125 51.8663 35.4711 51.8823 36.4311 51.8823C38.8098 51.8823 40.4311 51.8183 41.2951 51.6903L41.4231 51.8663C41.3378 52.261 41.2578 52.7303 41.1831 53.2743C41.1191 53.8183 41.0765 54.3143 41.0551 54.7623L39.6311 54.8583L39.6631 54.2183C39.6631 53.8983 39.6151 53.6743 39.5191 53.5463C39.4338 53.4076 39.2525 53.317 38.9751 53.2743C38.7085 53.221 38.2551 53.1943 37.6151 53.1943C37.3378 53.1943 37.1458 53.205 37.0391 53.2263C36.9325 53.2476 36.8578 53.2956 36.8151 53.3703C36.7831 53.445 36.7618 53.5676 36.7511 53.7383L36.6391 56.2503L38.1431 56.2663C38.3671 56.2663 38.6445 56.2556 38.9751 56.2343C39.3165 56.2023 39.6578 56.165 39.9991 56.1223L40.1271 56.2663L39.9031 57.6263C39.7645 57.6263 39.6578 57.621 39.5831 57.6103C38.8365 57.589 38.2445 57.5783 37.8071 57.5783C37.4765 57.5783 37.0658 57.6103 36.5751 57.6743L36.5431 59.9623C36.5431 60.261 36.5645 60.4743 36.6071 60.6023C36.6605 60.7303 36.7511 60.8156 36.8791 60.8583C37.0178 60.901 37.2525 60.9223 37.5831 60.9223C38.2871 60.9223 38.7938 60.885 39.1031 60.8103C39.4231 60.725 39.6525 60.5596 39.7911 60.3143C39.9298 60.069 40.0365 59.6636 40.1111 59.0983L41.4231 58.9863L41.5351 59.1303ZM43.4184 61.2263C43.8557 61.1516 44.149 61.0236 44.2984 60.8423C44.4477 60.661 44.5224 60.341 44.5224 59.8823V53.7703C44.5224 53.429 44.485 53.1996 44.4104 53.0823C44.3464 52.965 44.213 52.9063 44.0104 52.9063C43.893 52.9063 43.781 52.9116 43.6744 52.9223C43.5677 52.933 43.4984 52.9383 43.4664 52.9383L43.3704 52.8103L43.4984 51.8663L45.5144 51.8823C45.9197 51.8823 46.3677 51.877 46.8584 51.8663C47.3597 51.845 47.7117 51.829 47.9144 51.8183C49.2797 51.8183 50.261 52.1063 50.8584 52.6823C51.4557 53.2583 51.7544 53.989 51.7544 54.8743C51.7544 55.5036 51.573 56.101 51.2104 56.6663C50.8584 57.221 50.389 57.669 49.8024 58.0103C49.2157 58.341 48.5917 58.5063 47.9304 58.5063H46.5864L46.5544 59.7223C46.5544 60.1383 46.5704 60.4423 46.6024 60.6343C46.645 60.8263 46.7144 60.9596 46.8104 61.0343C46.917 61.0983 47.0824 61.1303 47.3064 61.1303C47.4557 61.1303 47.5997 61.125 47.7384 61.1143C47.877 61.1036 47.973 61.0983 48.0264 61.0983L48.0744 61.1783L47.9304 62.2023C47.781 62.2023 47.5037 62.1916 47.0984 62.1703C46.7037 62.1596 46.3197 62.1543 45.9464 62.1543C45.5837 62.1543 45.0984 62.1703 44.4904 62.2023C43.893 62.2343 43.493 62.261 43.2904 62.2823L43.4184 61.2263ZM48.0424 57.3063C49.0344 57.093 49.5304 56.3623 49.5304 55.1143C49.5304 54.4316 49.3384 53.9356 48.9544 53.6263C48.5704 53.3063 47.9624 53.1463 47.1304 53.1463C46.981 53.1463 46.885 53.1623 46.8424 53.1943C46.8104 53.2156 46.789 53.2903 46.7784 53.4183C46.7144 54.3783 46.661 55.605 46.6184 57.0983L48.0424 57.3063ZM53.0371 61.2743C53.5065 61.1783 53.8211 61.045 53.9811 60.8743C54.1411 60.693 54.2211 60.3783 54.2211 59.9303V53.7383C54.2211 53.4076 54.1838 53.189 54.1091 53.0823C54.0345 52.965 53.8798 52.9063 53.6451 52.9063L53.0851 52.9223L53.0051 52.7943L53.1331 51.8663L55.3411 51.8823C55.6931 51.8823 56.4398 51.845 57.5811 51.7703L57.5011 52.8263C57.0958 52.8796 56.8238 52.965 56.6851 53.0823C56.5571 53.189 56.4825 53.3916 56.4611 53.6903C56.3225 56.2076 56.2531 58.325 56.2531 60.0423C56.2531 60.4796 56.2958 60.773 56.3811 60.9223C56.4665 61.0716 56.6318 61.1463 56.8771 61.1463C56.9945 61.1463 57.2291 61.1303 57.5811 61.0983L57.6451 61.1943L57.5011 62.2023L56.9251 62.1863L55.1491 62.1543C54.6585 62.1543 53.9225 62.2023 52.9411 62.2983L53.0371 61.2743ZM60.357 61.2103C60.8477 61.1676 61.1997 61.1036 61.413 61.0183C61.6263 60.933 61.7703 60.7836 61.845 60.5703C61.9197 60.357 61.957 60.005 61.957 59.5143V53.0983C61.3383 53.1196 60.901 53.173 60.645 53.2583C60.3997 53.3436 60.229 53.5196 60.133 53.7863C60.037 54.0423 59.9517 54.5116 59.877 55.1943L58.565 55.2903C58.6397 54.405 58.7037 53.269 58.757 51.8823L58.933 51.7063L60.517 51.8823H65.509L67.125 51.7063L67.301 51.8823C67.3223 53.1623 67.3757 54.2663 67.461 55.1943L66.149 55.2903C66.0637 54.565 65.973 54.069 65.877 53.8023C65.7917 53.5356 65.6317 53.3596 65.397 53.2743C65.173 53.1783 64.7677 53.1196 64.181 53.0983C64.1277 53.8876 64.0797 54.9596 64.037 56.3143C64.005 57.669 63.989 58.901 63.989 60.0103C63.989 60.405 64.0583 60.6876 64.197 60.8583C64.3357 61.029 64.5597 61.1143 64.869 61.1143C65.1357 61.1143 65.4183 61.0983 65.717 61.0663L65.781 61.1463L65.637 62.2183C64.5063 62.1756 63.589 62.1543 62.885 62.1543C62.3303 62.1543 61.445 62.1863 60.229 62.2503L60.357 61.2103ZM72.9737 62.3463C72.0351 62.3463 71.2191 62.1436 70.5257 61.7383C69.8431 61.3223 69.3151 60.7356 68.9417 59.9783C68.5791 59.221 68.3977 58.325 68.3977 57.2903C68.3977 56.181 68.6164 55.205 69.0537 54.3623C69.4911 53.5196 70.1044 52.8636 70.8937 52.3943C71.6937 51.925 72.6111 51.6903 73.6457 51.6903C74.6057 51.6903 75.4324 51.893 76.1257 52.2983C76.8297 52.693 77.3631 53.269 77.7257 54.0263C78.0991 54.773 78.2857 55.6636 78.2857 56.6983C78.2857 57.8076 78.0617 58.7943 77.6137 59.6583C77.1764 60.5116 76.5524 61.173 75.7417 61.6423C74.9417 62.1116 74.0191 62.3463 72.9737 62.3463ZM73.3897 60.9863C74.1577 60.9863 74.7551 60.6876 75.1817 60.0903C75.6191 59.4823 75.8377 58.629 75.8377 57.5303C75.8377 56.133 75.6084 55.0663 75.1497 54.3303C74.6911 53.5836 74.0404 53.2103 73.1977 53.2103C72.4404 53.2103 71.8484 53.5143 71.4217 54.1223C71.0057 54.7196 70.7977 55.5676 70.7977 56.6663C70.7977 58.0636 71.0217 59.1356 71.4697 59.8823C71.9284 60.6183 72.5684 60.9863 73.3897 60.9863Z" fill="white"/>
<path d="M24.84 77.6055C25.192 77.5415 25.424 77.4495 25.536 77.3295C25.648 77.2015 25.704 76.9655 25.704 76.6215L25.716 71.5815C25.716 71.3255 25.684 71.1535 25.62 71.0655C25.564 70.9775 25.448 70.9335 25.272 70.9335C25.192 70.9335 25.112 70.9375 25.032 70.9455C24.952 70.9535 24.896 70.9575 24.864 70.9575L24.84 70.9095L24.924 70.3815C25.02 70.3895 25.2 70.3975 25.464 70.4055C25.728 70.4135 25.992 70.4175 26.256 70.4175C26.504 70.4175 26.784 70.4135 27.096 70.4055C27.416 70.3895 27.64 70.3775 27.768 70.3695C28.6 70.3695 29.236 70.5535 29.676 70.9215C30.116 71.2895 30.336 71.8175 30.336 72.5055C30.336 72.9535 30.204 73.3815 29.94 73.7895C29.684 74.1895 29.344 74.5135 28.92 74.7615C28.496 75.0095 28.052 75.1335 27.588 75.1335H26.58L26.556 76.3095C26.556 76.6935 26.568 76.9695 26.592 77.1375C26.616 77.2975 26.66 77.4055 26.724 77.4615C26.796 77.5095 26.916 77.5335 27.084 77.5335C27.22 77.5335 27.348 77.5295 27.468 77.5215C27.596 77.5135 27.684 77.5055 27.732 77.4975L27.756 77.5455L27.648 78.0975C27.568 78.0895 27.42 78.0815 27.204 78.0735C26.996 78.0655 26.776 78.0615 26.544 78.0615C26.224 78.0615 25.848 78.0735 25.416 78.0975C24.992 78.1215 24.772 78.1415 24.756 78.1575L24.84 77.6055ZM27.876 74.6055C28.356 74.5255 28.716 74.3295 28.956 74.0175C29.204 73.7055 29.328 73.2775 29.328 72.7335C29.328 72.1175 29.144 71.6695 28.776 71.3895C28.416 71.1015 27.848 70.9575 27.072 70.9575C26.928 70.9575 26.84 70.9655 26.808 70.9815C26.776 70.9975 26.756 71.0455 26.748 71.1255C26.676 72.1415 26.628 73.2415 26.604 74.4255L27.876 74.6055ZM33.6767 78.0855L33.7127 77.6535C34.0487 77.6295 34.2727 77.5935 34.3847 77.5455C34.5047 77.4975 34.5647 77.4175 34.5647 77.3055C34.5647 77.1775 34.5367 77.0415 34.4807 76.8975L34.1927 75.9735C34.0327 75.9655 33.7007 75.9615 33.1967 75.9615C32.9647 75.9615 32.6207 75.9855 32.1647 76.0335L31.8287 76.9215C31.7727 77.1055 31.7447 77.2175 31.7447 77.2575C31.7447 77.3855 31.7887 77.4775 31.8767 77.5335C31.9647 77.5895 32.1087 77.6175 32.3087 77.6175H32.8247L32.8607 77.6655L32.7887 78.1215C32.7087 78.1135 32.5247 78.1015 32.2367 78.0855C31.9567 78.0695 31.6807 78.0615 31.4087 78.0615C31.1527 78.0615 30.9207 78.0655 30.7127 78.0735C30.5127 78.0815 30.3767 78.0855 30.3047 78.0855L30.3767 77.5935C30.5527 77.5695 30.6927 77.5095 30.7967 77.4135C30.9007 77.3095 31.0047 77.1375 31.1087 76.8975L32.9927 72.1335L33.8447 71.9775L33.9287 71.9895C33.9287 72.0215 34.1087 72.6535 34.4687 73.8855C34.8367 75.1175 35.1647 76.1375 35.4527 76.9455C35.5327 77.1775 35.6327 77.3415 35.7527 77.4375C35.8807 77.5255 36.0807 77.5815 36.3527 77.6055L36.3767 77.6535L36.3167 78.0855C36.2367 78.0855 36.0887 78.0815 35.8727 78.0735C35.6567 78.0655 35.4407 78.0615 35.2247 78.0615C34.8967 78.0615 34.5847 78.0735 34.2887 78.0975C33.9927 78.1215 33.8007 78.1375 33.7127 78.1455L33.6767 78.0855ZM33.1727 75.4695C33.4527 75.4695 33.7447 75.4535 34.0487 75.4215L33.3167 73.0935H33.2327L32.3567 75.4695H33.1727ZM38.7139 78.1695C38.4339 78.1695 38.1739 78.1455 37.9339 78.0975C37.7019 78.0495 37.5139 78.0015 37.3699 77.9535C37.2339 77.8975 37.1499 77.8615 37.1179 77.8455L37.0579 77.7375C37.0659 77.6975 37.0779 77.6095 37.0939 77.4735C37.1179 77.3295 37.1379 77.1335 37.1539 76.8855C37.1779 76.6295 37.1899 76.3735 37.1899 76.1175L37.7299 76.0695C37.7299 76.5015 37.7619 76.8255 37.8259 77.0415C37.8979 77.2495 38.0179 77.3935 38.1859 77.4735C38.3539 77.5535 38.6099 77.5935 38.9539 77.5935C39.3379 77.5935 39.6459 77.5095 39.8779 77.3415C40.1179 77.1735 40.2379 76.9495 40.2379 76.6695C40.2379 76.4855 40.1699 76.3255 40.0339 76.1895C39.9059 76.0455 39.7539 75.9255 39.5779 75.8295C39.4099 75.7335 39.1379 75.5935 38.7619 75.4095C38.2499 75.1615 37.8539 74.9175 37.5739 74.6775C37.3019 74.4375 37.1659 74.1295 37.1659 73.7535C37.1659 73.4175 37.2659 73.1135 37.4659 72.8415C37.6739 72.5695 37.9579 72.3575 38.3179 72.2055C38.6779 72.0535 39.0779 71.9775 39.5179 71.9775C39.7819 71.9775 40.0299 71.9935 40.2619 72.0255C40.4939 72.0575 40.6779 72.0935 40.8139 72.1335C40.9499 72.1655 41.0339 72.1895 41.0659 72.2055L41.1139 72.2895C41.0979 72.3775 41.0619 72.5775 41.0059 72.8895C40.9499 73.1935 40.9099 73.5215 40.8859 73.8735L40.4179 73.9215L40.3459 73.8735C40.3459 73.8495 40.3499 73.8015 40.3579 73.7295C40.3659 73.6495 40.3699 73.5535 40.3699 73.4415C40.3699 73.1295 40.2859 72.9135 40.1179 72.7935C39.9579 72.6655 39.6699 72.6015 39.2539 72.6015C38.9179 72.6015 38.6379 72.6815 38.4139 72.8415C38.1979 72.9935 38.0899 73.1895 38.0899 73.4295C38.0899 73.6695 38.1979 73.8735 38.4139 74.0415C38.6379 74.2095 38.9739 74.4015 39.4219 74.6175C39.8139 74.8015 40.1259 74.9615 40.3579 75.0975C40.5979 75.2335 40.8019 75.4055 40.9699 75.6135C41.1379 75.8215 41.2219 76.0615 41.2219 76.3335C41.2219 76.6935 41.1139 77.0135 40.8979 77.2935C40.6899 77.5655 40.3939 77.7815 40.0099 77.9415C39.6339 78.0935 39.2019 78.1695 38.7139 78.1695ZM43.3337 77.6295C43.6537 77.6055 43.8777 77.5655 44.0057 77.5095C44.1417 77.4535 44.2257 77.3615 44.2577 77.2335C44.2977 77.0975 44.3177 76.8655 44.3177 76.5375V72.5655C43.8137 72.5815 43.4737 72.6095 43.2977 72.6495C43.1217 72.6895 42.9897 72.7855 42.9017 72.9375C42.8217 73.0815 42.7537 73.3575 42.6977 73.7655L42.1337 73.8015C42.1497 73.6975 42.1737 73.4695 42.2057 73.1175C42.2457 72.7575 42.2697 72.4055 42.2777 72.0615L42.3737 71.9775L43.2257 72.0735H46.2857L47.1617 71.9775L47.2577 72.0615C47.2657 72.4135 47.2857 72.7615 47.3177 73.1055C47.3497 73.4495 47.3737 73.6695 47.3897 73.7655L46.8377 73.8015C46.7737 73.3855 46.6977 73.1015 46.6097 72.9495C46.5297 72.7895 46.4057 72.6895 46.2377 72.6495C46.0777 72.6095 45.7657 72.5815 45.3017 72.5655C45.2617 72.9495 45.2257 73.5895 45.1937 74.4855C45.1617 75.3735 45.1457 76.1935 45.1457 76.9455C45.1457 77.1775 45.1897 77.3415 45.2777 77.4375C45.3657 77.5335 45.5097 77.5815 45.7097 77.5815C45.8537 77.5815 45.9697 77.5775 46.0577 77.5695C46.1537 77.5615 46.2137 77.5575 46.2377 77.5575L46.2737 77.5935L46.1897 78.0975C46.0777 78.0975 45.8697 78.0895 45.5657 78.0735C45.2617 78.0655 44.9657 78.0615 44.6777 78.0615C44.3897 78.0615 44.1057 78.0655 43.8257 78.0735C43.5457 78.0895 43.3537 78.1015 43.2497 78.1095L43.3337 77.6295ZM50.6806 78.0855L50.7166 77.6535C51.0526 77.6295 51.2766 77.5935 51.3886 77.5455C51.5086 77.4975 51.5686 77.4175 51.5686 77.3055C51.5686 77.1775 51.5406 77.0415 51.4846 76.8975L51.1966 75.9735C51.0366 75.9655 50.7046 75.9615 50.2006 75.9615C49.9686 75.9615 49.6246 75.9855 49.1686 76.0335L48.8326 76.9215C48.7766 77.1055 48.7486 77.2175 48.7486 77.2575C48.7486 77.3855 48.7926 77.4775 48.8806 77.5335C48.9686 77.5895 49.1126 77.6175 49.3126 77.6175H49.8286L49.8646 77.6655L49.7926 78.1215C49.7126 78.1135 49.5286 78.1015 49.2406 78.0855C48.9606 78.0695 48.6846 78.0615 48.4126 78.0615C48.1566 78.0615 47.9246 78.0655 47.7166 78.0735C47.5166 78.0815 47.3806 78.0855 47.3086 78.0855L47.3806 77.5935C47.5566 77.5695 47.6966 77.5095 47.8006 77.4135C47.9046 77.3095 48.0086 77.1375 48.1126 76.8975L49.9966 72.1335L50.8486 71.9775L50.9326 71.9895C50.9326 72.0215 51.1126 72.6535 51.4726 73.8855C51.8406 75.1175 52.1686 76.1375 52.4566 76.9455C52.5366 77.1775 52.6366 77.3415 52.7566 77.4375C52.8846 77.5255 53.0846 77.5815 53.3566 77.6055L53.3806 77.6535L53.3206 78.0855C53.2406 78.0855 53.0926 78.0815 52.8766 78.0735C52.6606 78.0655 52.4446 78.0615 52.2286 78.0615C51.9006 78.0615 51.5886 78.0735 51.2926 78.0975C50.9966 78.1215 50.8046 78.1375 50.7166 78.1455L50.6806 78.0855ZM50.1766 75.4695C50.4566 75.4695 50.7486 75.4535 51.0526 75.4215L50.3206 73.0935H50.2366L49.3606 75.4695H50.1766Z" fill="white"/>
</svg>
