<svg width="74" height="82" viewBox="0 0 74 82" fill="none" xmlns="http://www.w3.org/2000/svg">
<mask id="path-1-inside-1_1541_9551" fill="white">
<path fill-rule="evenodd" clip-rule="evenodd" d="M48.4809 33.6062C48.4809 33.6062 48.4809 33.6062 48.4809 33.6062C48.4809 27.2173 43.3413 22.0381 37.0012 22.0381C30.6611 22.0381 25.5215 27.2173 25.5215 33.6062C25.5215 33.6062 25.5215 33.6062 25.5215 33.6062H48.4809Z"/>
</mask>
<path d="M48.4809 33.6062V34.6062H49.4809V33.6062H48.4809ZM25.5215 33.6062H24.5215V34.6062H25.5215V33.6062ZM47.4809 33.6062V33.6062C47.4809 33.6062 47.4809 33.6062 47.4809 33.6062C47.4809 33.6062 47.4809 33.6062 47.4809 33.6062V33.6062C47.4809 33.6062 47.4809 33.6062 47.4809 33.6062C47.4809 33.6062 47.4809 33.6062 47.4809 33.6062V33.6062C47.4809 33.6062 47.4809 33.6062 47.4809 33.6062C47.4809 33.6062 47.4809 33.6062 47.4809 33.6062C47.4809 33.6062 47.4809 33.6062 47.4809 33.6062C47.4809 33.6062 47.4809 33.6062 47.4809 33.6062C47.4809 33.6062 47.4809 33.6062 47.4809 33.6062C47.4809 33.6062 47.4809 33.6062 47.4809 33.6062C47.4809 33.6062 47.4809 33.6062 47.4809 33.6062C47.4809 33.6062 47.4809 33.6062 47.4809 33.6062C47.4809 33.6062 47.4809 33.6062 47.4809 33.6062C47.4809 33.6062 47.4809 33.6062 47.4809 33.6062C47.4809 33.6062 47.4809 33.6062 47.4809 33.6062C47.4809 33.6062 47.4809 33.6062 47.4809 33.6062C47.4809 33.6062 47.4809 33.6062 47.4809 33.6062C47.4809 33.6062 47.4809 33.6062 47.4809 33.6062V33.6062C47.4809 33.6062 47.4809 33.6062 47.4809 33.6062C47.4809 33.6062 47.4809 33.6062 47.4809 33.6062V33.6062C47.4809 33.6062 47.4809 33.6062 47.4809 33.6062C47.4809 33.6062 47.4809 33.6062 47.4809 33.6062V33.6062H49.4809V33.6062C49.4809 33.6062 49.4809 33.6062 49.4809 33.6062C49.4809 33.6062 49.4809 33.6062 49.4809 33.6062V33.6062C49.4809 33.6062 49.4809 33.6062 49.4809 33.6062C49.4809 33.6062 49.4809 33.6062 49.4809 33.6062V33.6062C49.4809 33.6062 49.4809 33.6062 49.4809 33.6062C49.4809 33.6062 49.4809 33.6062 49.4809 33.6062C49.4809 33.6062 49.4809 33.6062 49.4809 33.6062C49.4809 33.6062 49.4809 33.6062 49.4809 33.6062C49.4809 33.6062 49.4809 33.6062 49.4809 33.6062C49.4809 33.6062 49.4809 33.6062 49.4809 33.6062C49.4809 33.6062 49.4809 33.6062 49.4809 33.6062C49.4809 33.6062 49.4809 33.6062 49.4809 33.6062C49.4809 33.6062 49.4809 33.6062 49.4809 33.6062C49.4809 33.6062 49.4809 33.6062 49.4809 33.6062C49.4809 33.6062 49.4809 33.6062 49.4809 33.6062C49.4809 33.6062 49.4809 33.6062 49.4809 33.6062C49.4809 33.6062 49.4809 33.6062 49.4809 33.6062C49.4809 33.6062 49.4809 33.6062 49.4809 33.6062V33.6062C49.4809 33.6062 49.4809 33.6062 49.4809 33.6062C49.4809 33.6062 49.4809 33.6062 49.4809 33.6062V33.6062C49.4809 33.6062 49.4809 33.6062 49.4809 33.6062C49.4809 33.6062 49.4809 33.6062 49.4809 33.6062V33.6062H47.4809ZM37.0012 23.0381C42.7818 23.0381 47.4809 27.7623 47.4809 33.6062H49.4809C49.4809 26.6723 43.9008 21.0381 37.0012 21.0381V23.0381ZM26.5215 33.6062C26.5215 27.7623 31.2206 23.0381 37.0012 23.0381V21.0381C30.1016 21.0381 24.5215 26.6723 24.5215 33.6062H26.5215ZM26.5215 33.6062C26.5215 33.6062 26.5215 33.6062 26.5215 33.6062C26.5215 33.6062 26.5215 33.6062 26.5215 33.6062H24.5215C24.5215 33.6062 24.5215 33.6062 24.5215 33.6062C24.5215 33.6062 24.5215 33.6062 24.5215 33.6062H26.5215ZM25.5215 34.6062H48.4809V32.6062H25.5215V34.6062Z" fill="#035C68" mask="url(#path-1-inside-1_1541_9551)"/>
<mask id="path-3-inside-2_1541_9551" fill="white">
<path fill-rule="evenodd" clip-rule="evenodd" d="M45.6082 33.6068C45.6082 33.6068 45.6082 33.6068 45.6082 33.6068C45.6082 28.8151 41.7535 24.9307 36.9985 24.9307C32.2434 24.9307 28.3887 28.8151 28.3887 33.6068C28.3887 33.6068 28.3887 33.6068 28.3887 33.6068H45.6082Z"/>
</mask>
<path d="M45.6082 33.6068V34.6068H46.6082V33.6068H45.6082ZM28.3887 33.6068H27.3887V34.6068H28.3887V33.6068ZM44.6082 33.6068V33.6068C44.6082 33.6068 44.6082 33.6068 44.6082 33.6068C44.6082 33.6068 44.6082 33.6068 44.6082 33.6068V33.6068C44.6082 33.6068 44.6082 33.6068 44.6082 33.6068C44.6082 33.6068 44.6082 33.6068 44.6082 33.6068V33.6068C44.6082 33.6068 44.6082 33.6068 44.6082 33.6068C44.6082 33.6068 44.6082 33.6068 44.6082 33.6068C44.6082 33.6068 44.6082 33.6068 44.6082 33.6068C44.6082 33.6068 44.6082 33.6068 44.6082 33.6068C44.6082 33.6068 44.6082 33.6068 44.6082 33.6068C44.6082 33.6068 44.6082 33.6068 44.6082 33.6068C44.6082 33.6068 44.6082 33.6068 44.6082 33.6068C44.6082 33.6068 44.6082 33.6068 44.6082 33.6068C44.6082 33.6068 44.6082 33.6068 44.6082 33.6068C44.6082 33.6068 44.6082 33.6068 44.6082 33.6068C44.6082 33.6068 44.6082 33.6068 44.6082 33.6068C44.6082 33.6068 44.6082 33.6068 44.6082 33.6068C44.6082 33.6068 44.6082 33.6068 44.6082 33.6068C44.6082 33.6068 44.6082 33.6068 44.6082 33.6068V33.6068C44.6082 33.6068 44.6082 33.6068 44.6082 33.6068C44.6082 33.6068 44.6082 33.6068 44.6082 33.6068V33.6068C44.6082 33.6068 44.6082 33.6068 44.6082 33.6068C44.6082 33.6068 44.6082 33.6068 44.6082 33.6068V33.6068H46.6082V33.6068C46.6082 33.6068 46.6082 33.6068 46.6082 33.6068C46.6082 33.6068 46.6082 33.6068 46.6082 33.6068V33.6068C46.6082 33.6068 46.6082 33.6068 46.6082 33.6068C46.6082 33.6068 46.6082 33.6068 46.6082 33.6068V33.6068C46.6082 33.6068 46.6082 33.6068 46.6082 33.6068C46.6082 33.6068 46.6082 33.6068 46.6082 33.6068C46.6082 33.6068 46.6082 33.6068 46.6082 33.6068C46.6082 33.6068 46.6082 33.6068 46.6082 33.6068C46.6082 33.6068 46.6082 33.6068 46.6082 33.6068C46.6082 33.6068 46.6082 33.6068 46.6082 33.6068C46.6082 33.6068 46.6082 33.6068 46.6082 33.6068C46.6082 33.6068 46.6082 33.6068 46.6082 33.6068C46.6082 33.6068 46.6082 33.6068 46.6082 33.6068C46.6082 33.6068 46.6082 33.6068 46.6082 33.6068C46.6082 33.6068 46.6082 33.6068 46.6082 33.6068C46.6082 33.6068 46.6082 33.6068 46.6082 33.6068C46.6082 33.6068 46.6082 33.6068 46.6082 33.6068C46.6082 33.6068 46.6082 33.6068 46.6082 33.6068V33.6068C46.6082 33.6068 46.6082 33.6068 46.6082 33.6068C46.6082 33.6068 46.6082 33.6068 46.6082 33.6068V33.6068C46.6082 33.6068 46.6082 33.6068 46.6082 33.6068C46.6082 33.6068 46.6082 33.6068 46.6082 33.6068V33.6068H44.6082ZM36.9985 25.9307C41.194 25.9307 44.6082 29.3601 44.6082 33.6068H46.6082C46.6082 28.27 42.313 23.9307 36.9985 23.9307V25.9307ZM29.3887 33.6068C29.3887 29.3601 32.8029 25.9307 36.9985 25.9307V23.9307C31.6839 23.9307 27.3887 28.27 27.3887 33.6068H29.3887ZM29.3887 33.6068C29.3887 33.6068 29.3887 33.6068 29.3887 33.6068C29.3887 33.6068 29.3887 33.6068 29.3887 33.6068H27.3887C27.3887 33.6068 27.3887 33.6068 27.3887 33.6068C27.3887 33.6068 27.3887 33.6068 27.3887 33.6068H29.3887ZM28.3887 34.6068H45.6082V32.6068H28.3887V34.6068Z" fill="#035C68" mask="url(#path-3-inside-2_1541_9551)"/>
<mask id="path-5-inside-3_1541_9551" fill="white">
<path fill-rule="evenodd" clip-rule="evenodd" d="M42.1655 33.3172C42.1655 33.3171 42.1655 33.3171 42.1655 33.3171C42.1655 30.2824 39.7242 27.8223 36.7126 27.8223C33.7011 27.8223 31.2598 30.2824 31.2598 33.3171C31.2598 33.3171 31.2598 33.3171 31.2598 33.3172H42.1655Z"/>
</mask>
<path d="M42.1655 33.3172V34.3172H43.1655V33.3172H42.1655ZM31.2598 33.3172H30.2598V34.3172H31.2598V33.3172ZM41.1655 33.3171C41.1655 33.3171 41.1655 33.3171 41.1655 33.3171C41.1655 33.3171 41.1655 33.3171 41.1655 33.3171C41.1655 33.3171 41.1655 33.3171 41.1655 33.3171V33.3171V33.3171C41.1655 33.3171 41.1655 33.3171 41.1655 33.3171C41.1655 33.3171 41.1655 33.3171 41.1655 33.3171C41.1655 33.3171 41.1655 33.3171 41.1655 33.3171C41.1655 33.3171 41.1655 33.3171 41.1655 33.3171C41.1655 33.3171 41.1655 33.3171 41.1655 33.3171V33.3171V33.3171V33.3171C41.1655 33.3171 41.1655 33.3171 41.1655 33.3171C41.1655 33.3171 41.1655 33.3171 41.1655 33.3171C41.1655 33.3171 41.1655 33.3171 41.1655 33.3171C41.1655 33.3171 41.1655 33.3171 41.1655 33.3171C41.1655 33.3171 41.1655 33.3171 41.1655 33.3171V33.3171V33.3171V33.3171C41.1655 33.3171 41.1655 33.3171 41.1655 33.3171C41.1655 33.3171 41.1655 33.3171 41.1655 33.3171C41.1655 33.3171 41.1655 33.3171 41.1655 33.3171C41.1655 33.3171 41.1655 33.3171 41.1655 33.3171C41.1655 33.3171 41.1655 33.3171 41.1655 33.3171V33.3171V33.3171V33.3171C41.1655 33.3171 41.1655 33.3171 41.1655 33.3171C41.1655 33.3171 41.1655 33.3171 41.1655 33.3171C41.1655 33.3171 41.1655 33.3171 41.1655 33.3171C41.1655 33.3171 41.1655 33.3171 41.1655 33.3171C41.1655 33.3171 41.1655 33.3171 41.1655 33.3171V33.3171V33.3171V33.3171C41.1655 33.3171 41.1655 33.3171 41.1655 33.3171C41.1655 33.3171 41.1655 33.3171 41.1655 33.3171C41.1655 33.3171 41.1655 33.3171 41.1655 33.3171C41.1655 33.3171 41.1655 33.3171 41.1655 33.3171C41.1655 33.3171 41.1655 33.3171 41.1655 33.3171V33.3171V33.3171V33.3171C41.1655 33.3171 41.1655 33.3171 41.1655 33.3171C41.1655 33.3171 41.1655 33.3171 41.1655 33.3171C41.1655 33.3171 41.1655 33.3171 41.1655 33.3171C41.1655 33.3171 41.1655 33.3171 41.1655 33.3171C41.1655 33.3171 41.1655 33.3171 41.1655 33.3171V33.3171V33.3171C41.1655 33.3171 41.1655 33.3171 41.1655 33.3171C41.1655 33.3171 41.1655 33.3171 41.1655 33.3171C41.1655 33.3171 41.1655 33.3171 41.1655 33.3171C41.1655 33.3171 41.1655 33.3171 41.1655 33.3171C41.1655 33.3171 41.1655 33.3171 41.1655 33.3171C41.1655 33.3171 41.1655 33.3171 41.1655 33.3171V33.3171V33.3171C41.1655 33.3171 41.1655 33.3171 41.1655 33.3171C41.1655 33.3171 41.1655 33.3171 41.1655 33.3172C41.1655 33.3172 41.1655 33.3172 41.1655 33.3172H43.1655C43.1655 33.3172 43.1655 33.3172 43.1655 33.3172C43.1655 33.3171 43.1655 33.3171 43.1655 33.3171C43.1655 33.3171 43.1655 33.3171 43.1655 33.3171V33.3171V33.3171C43.1655 33.3171 43.1655 33.3171 43.1655 33.3171C43.1655 33.3171 43.1655 33.3171 43.1655 33.3171C43.1655 33.3171 43.1655 33.3171 43.1655 33.3171C43.1655 33.3171 43.1655 33.3171 43.1655 33.3171C43.1655 33.3171 43.1655 33.3171 43.1655 33.3171C43.1655 33.3171 43.1655 33.3171 43.1655 33.3171V33.3171V33.3171C43.1655 33.3171 43.1655 33.3171 43.1655 33.3171C43.1655 33.3171 43.1655 33.3171 43.1655 33.3171C43.1655 33.3171 43.1655 33.3171 43.1655 33.3171C43.1655 33.3171 43.1655 33.3171 43.1655 33.3171C43.1655 33.3171 43.1655 33.3171 43.1655 33.3171V33.3171V33.3171V33.3171C43.1655 33.3171 43.1655 33.3171 43.1655 33.3171C43.1655 33.3171 43.1655 33.3171 43.1655 33.3171C43.1655 33.3171 43.1655 33.3171 43.1655 33.3171C43.1655 33.3171 43.1655 33.3171 43.1655 33.3171C43.1655 33.3171 43.1655 33.3171 43.1655 33.3171V33.3171V33.3171V33.3171C43.1655 33.3171 43.1655 33.3171 43.1655 33.3171C43.1655 33.3171 43.1655 33.3171 43.1655 33.3171C43.1655 33.3171 43.1655 33.3171 43.1655 33.3171C43.1655 33.3171 43.1655 33.3171 43.1655 33.3171C43.1655 33.3171 43.1655 33.3171 43.1655 33.3171V33.3171V33.3171V33.3171C43.1655 33.3171 43.1655 33.3171 43.1655 33.3171C43.1655 33.3171 43.1655 33.3171 43.1655 33.3171C43.1655 33.3171 43.1655 33.3171 43.1655 33.3171C43.1655 33.3171 43.1655 33.3171 43.1655 33.3171C43.1655 33.3171 43.1655 33.3171 43.1655 33.3171V33.3171V33.3171V33.3171C43.1655 33.3171 43.1655 33.3171 43.1655 33.3171C43.1655 33.3171 43.1655 33.3171 43.1655 33.3171C43.1655 33.3171 43.1655 33.3171 43.1655 33.3171C43.1655 33.3171 43.1655 33.3171 43.1655 33.3171C43.1655 33.3171 43.1655 33.3171 43.1655 33.3171V33.3171V33.3171V33.3171C43.1655 33.3171 43.1655 33.3171 43.1655 33.3171C43.1655 33.3171 43.1655 33.3171 43.1655 33.3171C43.1655 33.3171 43.1655 33.3171 43.1655 33.3171C43.1655 33.3171 43.1655 33.3171 43.1655 33.3171C43.1655 33.3171 43.1655 33.3171 43.1655 33.3171V33.3171V33.3171C43.1655 33.3171 43.1655 33.3171 43.1655 33.3171C43.1655 33.3171 43.1655 33.3171 43.1655 33.3171C43.1655 33.3171 43.1655 33.3171 43.1655 33.3171H41.1655ZM36.7126 28.8223C39.1647 28.8223 41.1655 30.8274 41.1655 33.3171H43.1655C43.1655 29.7374 40.2837 26.8223 36.7126 26.8223V28.8223ZM32.2598 33.3171C32.2598 30.8274 34.2606 28.8223 36.7126 28.8223V26.8223C33.1416 26.8223 30.2598 29.7374 30.2598 33.3171H32.2598ZM32.2598 33.3172C32.2598 33.3171 32.2598 33.3171 32.2598 33.3171C32.2598 33.3171 32.2598 33.3171 32.2598 33.3171H30.2598C30.2598 33.3171 30.2598 33.3171 30.2598 33.3171C30.2598 33.3171 30.2598 33.3171 30.2598 33.3172H32.2598ZM31.2598 34.3172H42.1655V32.3172H31.2598V34.3172Z" fill="#035C68" mask="url(#path-5-inside-3_1541_9551)"/>
<mask id="path-7-inside-4_1541_9551" fill="white">
<path fill-rule="evenodd" clip-rule="evenodd" d="M22.6523 33.6066L51.3516 33.6066C51.3516 25.6205 44.9271 19.1465 37.002 19.1465C29.0769 19.1465 22.6524 25.6205 22.6523 33.6066Z"/>
</mask>
<path d="M22.6523 33.6066L21.6523 33.6066L21.6523 34.6066H22.6523L22.6523 33.6066ZM51.3516 33.6066V34.6066H52.3516V33.6066H51.3516ZM22.6523 34.6066L51.3516 34.6066V32.6066L22.6523 32.6066L22.6523 34.6066ZM37.002 20.1465C44.3676 20.1465 50.3516 26.1655 50.3516 33.6066H52.3516C52.3516 25.0755 45.4866 18.1465 37.002 18.1465V20.1465ZM23.6523 33.6066C23.6523 26.1655 29.6364 20.1465 37.002 20.1465V18.1465C28.5174 18.1465 21.6524 25.0755 21.6523 33.6066L23.6523 33.6066Z" fill="#035C68" mask="url(#path-7-inside-4_1541_9551)"/>
<mask id="path-9-inside-5_1541_9551" fill="white">
<path fill-rule="evenodd" clip-rule="evenodd" d="M27.8159 32.5889H19.3441C17.1813 32.5889 16.2138 35.3025 17.8886 36.6708L23.4238 41.1929C23.6606 41.3863 23.798 41.6759 23.798 41.9816C23.798 42.5442 24.254 43.0002 24.8165 43.0002H27.8159H46.1834H49.1828C49.7454 43.0002 50.2014 42.5442 50.2014 41.9816C50.2014 41.6759 50.3387 41.3863 50.5755 41.1929L56.1107 36.6708C57.7856 35.3025 56.818 32.5889 54.6553 32.5889H46.1834H27.8159Z"/>
</mask>
<path d="M56.1107 36.6708L57.0597 37.8324L56.1107 36.6708ZM50.5755 41.1929L51.5245 42.3545L50.5755 41.1929ZM23.4238 41.1929L24.3729 40.0313L23.4238 41.1929ZM19.3441 34.0889H27.8159V31.0889H19.3441V34.0889ZM24.3729 40.0313L18.8376 35.5092L16.9396 37.8324L22.4748 42.3545L24.3729 40.0313ZM27.8159 41.5002H24.8165V44.5002H27.8159V41.5002ZM27.8159 44.5002H46.1834V41.5002H27.8159V44.5002ZM46.1834 44.5002H49.1828V41.5002H46.1834V44.5002ZM51.5245 42.3545L57.0597 37.8324L55.1617 35.5092L49.6265 40.0313L51.5245 42.3545ZM54.6553 31.0889H46.1834V34.0889H54.6553V31.0889ZM46.1834 31.0889H27.8159V34.0889H46.1834V31.0889ZM57.0597 37.8324C59.8267 35.5719 58.2282 31.0889 54.6553 31.0889V34.0889C55.4078 34.0889 55.7444 35.0331 55.1617 35.5092L57.0597 37.8324ZM49.1828 44.5002C50.5738 44.5002 51.7014 43.3726 51.7014 41.9816H48.7014C48.7014 41.7157 48.9169 41.5002 49.1828 41.5002V44.5002ZM22.298 41.9816C22.298 43.3726 23.4255 44.5002 24.8165 44.5002V41.5002C25.0824 41.5002 25.298 41.7157 25.298 41.9816H22.298ZM51.7014 41.9816C51.7014 42.1262 51.6364 42.2631 51.5245 42.3545L49.6265 40.0313C49.041 40.5096 48.7014 41.2256 48.7014 41.9816H51.7014ZM22.4748 42.3545C22.3629 42.2631 22.298 42.1262 22.298 41.9816H25.298C25.298 41.2256 24.9583 40.5096 24.3729 40.0313L22.4748 42.3545ZM19.3441 31.0889C15.7711 31.0889 14.1727 35.5719 16.9396 37.8324L18.8376 35.5092C18.2549 35.0331 18.5915 34.0889 19.3441 34.0889V31.0889Z" fill="#035C68" mask="url(#path-9-inside-5_1541_9551)"/>
<path d="M37.1175 16C37.1175 16 36.6268 15.25 37.6512 13.5C38.6756 11.75 37.1175 9 37.1175 9" stroke="#035C68" stroke-linecap="round"/>
<path d="M30.1175 18C30.1175 18 29.6268 17.25 30.6512 15.5C31.6756 13.75 30.1175 11 30.1175 11" stroke="#035C68" stroke-linecap="round"/>
<path d="M43.1175 18C43.1175 18 42.6268 17.25 43.6512 15.5C44.6756 13.75 43.1175 11 43.1175 11" stroke="#035C68" stroke-linecap="round"/>
<path d="M42.166 32.5889L55.9327 26.8048" stroke="#035C68" stroke-width="1.5" stroke-linecap="round"/>
<path d="M0.765 58.145C1.145 58.085 1.405 57.965 1.545 57.785C1.685 57.605 1.755 57.295 1.755 56.855L1.77 51.11C1.77 50.8 1.735 50.595 1.665 50.495C1.595 50.385 1.45 50.33 1.23 50.33L0.765 50.345L0.69 50.225L0.81 49.355L2.82 49.37C3.1 49.37 3.505 49.355 4.035 49.325C4.575 49.295 4.93 49.275 5.1 49.265L4.995 50.3C4.655 50.34 4.405 50.4 4.245 50.48C4.095 50.55 3.995 50.655 3.945 50.795C3.905 50.925 3.875 51.135 3.855 51.425C3.745 52.925 3.69 54.76 3.69 56.93C3.69 57.2 3.715 57.4 3.765 57.53C3.815 57.65 3.905 57.735 4.035 57.785C4.165 57.825 4.365 57.845 4.635 57.845C5.135 57.845 5.505 57.79 5.745 57.68C5.995 57.57 6.18 57.36 6.3 57.05C6.42 56.74 6.52 56.25 6.6 55.58L7.815 55.445L7.92 55.595C7.89 55.785 7.83 56.215 7.74 56.885C7.66 57.545 7.59 58.24 7.53 58.97L7.38 59.12C7.11 59.11 6.525 59.085 5.625 59.045C4.725 59.015 3.91 59 3.18 59C2.63 59 2.105 59.02 1.605 59.06C1.105 59.1 0.785 59.13 0.645 59.15L0.765 58.145ZM13.5742 59L13.6492 58.115C13.9892 58.085 14.2342 58.055 14.3842 58.025C14.5442 57.985 14.6542 57.935 14.7142 57.875C14.7742 57.805 14.8042 57.705 14.8042 57.575C14.8042 57.455 14.7792 57.28 14.7292 57.05L14.4142 55.895C13.8942 55.875 13.4342 55.865 13.0342 55.865C12.8542 55.865 12.4792 55.89 11.9092 55.94L11.5942 55.97L11.2192 57.125C11.1592 57.345 11.1292 57.5 11.1292 57.59C11.1292 57.77 11.1792 57.895 11.2792 57.965C11.3892 58.035 11.5742 58.07 11.8342 58.07H12.4792L12.5542 58.175L12.4492 59.09C12.3092 59.08 12.0092 59.06 11.5492 59.03C11.0892 59.01 10.6592 59 10.2592 59C9.83918 59 9.45918 59.005 9.11918 59.015C8.78918 59.025 8.56918 59.035 8.45918 59.045L8.56418 58.07C8.79418 58.03 8.98418 57.935 9.13418 57.785C9.28418 57.635 9.42418 57.39 9.55418 57.05L12.2392 49.445L14.5342 49.205L14.6992 49.28C14.8492 49.85 15.1592 51.02 15.6292 52.79C16.1092 54.55 16.5192 55.965 16.8592 57.035C16.9692 57.395 17.1092 57.65 17.2792 57.8C17.4492 57.95 17.7042 58.04 18.0442 58.07L18.1042 58.175L17.9992 59.045C17.8692 59.035 17.6242 59.025 17.2642 59.015C16.9042 59.005 16.5392 59 16.1692 59C15.6392 59 15.1192 59.015 14.6092 59.045C14.1092 59.085 13.7892 59.11 13.6492 59.12L13.5742 59ZM13.0342 54.71C13.1442 54.71 13.5142 54.695 14.1442 54.665L13.2592 51.32H13.0642L11.9542 54.71H13.0342ZM22.2266 58.13C22.6366 58.06 22.9116 57.94 23.0516 57.77C23.1916 57.6 23.2616 57.3 23.2616 56.87V51.14C23.2616 50.82 23.2266 50.605 23.1566 50.495C23.0966 50.385 22.9716 50.33 22.7816 50.33C22.6716 50.33 22.5666 50.335 22.4666 50.345C22.3666 50.355 22.3016 50.36 22.2716 50.36L22.1816 50.24L22.3016 49.355L24.1916 49.37C24.5716 49.37 24.9916 49.365 25.4516 49.355C25.9216 49.335 26.2516 49.32 26.4416 49.31C27.7216 49.31 28.6416 49.58 29.2016 50.12C29.7616 50.66 30.0416 51.345 30.0416 52.175C30.0416 52.765 29.8716 53.325 29.5316 53.855C29.2016 54.375 28.7616 54.795 28.2116 55.115C27.6616 55.425 27.0766 55.58 26.4566 55.58H25.1966L25.1666 56.72C25.1666 57.11 25.1816 57.395 25.2116 57.575C25.2516 57.755 25.3166 57.88 25.4066 57.95C25.5066 58.01 25.6616 58.04 25.8716 58.04C26.0116 58.04 26.1466 58.035 26.2766 58.025C26.4066 58.015 26.4966 58.01 26.5466 58.01L26.5916 58.085L26.4566 59.045C26.3166 59.045 26.0566 59.035 25.6766 59.015C25.3066 59.005 24.9466 59 24.5966 59C24.2566 59 23.8016 59.015 23.2316 59.045C22.6716 59.075 22.2966 59.1 22.1066 59.12L22.2266 58.13ZM26.5616 54.455C27.4916 54.255 27.9566 53.57 27.9566 52.4C27.9566 51.76 27.7766 51.295 27.4166 51.005C27.0566 50.705 26.4866 50.555 25.7066 50.555C25.5666 50.555 25.4766 50.57 25.4366 50.6C25.4066 50.62 25.3866 50.69 25.3766 50.81C25.3166 51.71 25.2666 52.86 25.2266 54.26L26.5616 54.455ZM38.9392 56.165C38.7792 56.945 38.6442 57.87 38.5342 58.94L38.3842 59.105C36.4742 59.035 34.9192 59 33.7192 59C32.8792 59 32.0242 59.05 31.1542 59.15L31.2592 58.145C31.6792 58.085 31.9642 57.965 32.1142 57.785C32.2642 57.605 32.3392 57.295 32.3392 56.855L32.3542 51.14C32.3542 50.81 32.3242 50.595 32.2642 50.495C32.2042 50.385 32.0742 50.33 31.8742 50.33C31.7442 50.33 31.5892 50.34 31.4092 50.36L31.3192 50.225L31.4392 49.325H31.7392C32.4492 49.355 33.2542 49.37 34.1542 49.37C36.3842 49.37 37.9042 49.31 38.7142 49.19L38.8342 49.355C38.7542 49.725 38.6792 50.165 38.6092 50.675C38.5492 51.185 38.5092 51.65 38.4892 52.07L37.1542 52.16L37.1842 51.56C37.1842 51.26 37.1392 51.05 37.0492 50.93C36.9692 50.8 36.7992 50.715 36.5392 50.675C36.2892 50.625 35.8642 50.6 35.2642 50.6C35.0042 50.6 34.8242 50.61 34.7242 50.63C34.6242 50.65 34.5542 50.695 34.5142 50.765C34.4842 50.835 34.4642 50.95 34.4542 51.11L34.3492 53.465L35.7592 53.48C35.9692 53.48 36.2292 53.47 36.5392 53.45C36.8592 53.42 37.1792 53.385 37.4992 53.345L37.6192 53.48L37.4092 54.755C37.2792 54.755 37.1792 54.75 37.1092 54.74C36.4092 54.72 35.8542 54.71 35.4442 54.71C35.1342 54.71 34.7492 54.74 34.2892 54.8L34.2592 56.945C34.2592 57.225 34.2792 57.425 34.3192 57.545C34.3692 57.665 34.4542 57.745 34.5742 57.785C34.7042 57.825 34.9242 57.845 35.2342 57.845C35.8942 57.845 36.3692 57.81 36.6592 57.74C36.9592 57.66 37.1742 57.505 37.3042 57.275C37.4342 57.045 37.5342 56.665 37.6042 56.135L38.8342 56.03L38.9392 56.165ZM40.7047 58.13C41.1147 58.06 41.3897 57.94 41.5297 57.77C41.6697 57.6 41.7397 57.3 41.7397 56.87V51.14C41.7397 50.82 41.7047 50.605 41.6347 50.495C41.5747 50.385 41.4497 50.33 41.2597 50.33C41.1497 50.33 41.0447 50.335 40.9447 50.345C40.8447 50.355 40.7797 50.36 40.7497 50.36L40.6597 50.24L40.7797 49.355L42.6697 49.37C43.0497 49.37 43.4697 49.365 43.9297 49.355C44.3997 49.335 44.7297 49.32 44.9197 49.31C46.1997 49.31 47.1197 49.58 47.6797 50.12C48.2397 50.66 48.5197 51.345 48.5197 52.175C48.5197 52.765 48.3497 53.325 48.0097 53.855C47.6797 54.375 47.2397 54.795 46.6897 55.115C46.1397 55.425 45.5547 55.58 44.9347 55.58H43.6747L43.6447 56.72C43.6447 57.11 43.6597 57.395 43.6897 57.575C43.7297 57.755 43.7947 57.88 43.8847 57.95C43.9847 58.01 44.1397 58.04 44.3497 58.04C44.4897 58.04 44.6247 58.035 44.7547 58.025C44.8847 58.015 44.9747 58.01 45.0247 58.01L45.0697 58.085L44.9347 59.045C44.7947 59.045 44.5347 59.035 44.1547 59.015C43.7847 59.005 43.4247 59 43.0747 59C42.7347 59 42.2797 59.015 41.7097 59.045C41.1497 59.075 40.7747 59.1 40.5847 59.12L40.7047 58.13ZM45.0397 54.455C45.9697 54.255 46.4347 53.57 46.4347 52.4C46.4347 51.76 46.2547 51.295 45.8947 51.005C45.5347 50.705 44.9647 50.555 44.1847 50.555C44.0447 50.555 43.9547 50.57 43.9147 50.6C43.8847 50.62 43.8647 50.69 43.8547 50.81C43.7947 51.71 43.7447 52.86 43.7047 54.26L45.0397 54.455ZM49.7223 58.175C50.1623 58.085 50.4573 57.96 50.6073 57.8C50.7573 57.63 50.8323 57.335 50.8323 56.915V51.11C50.8323 50.8 50.7973 50.595 50.7273 50.495C50.6573 50.385 50.5123 50.33 50.2923 50.33L49.7673 50.345L49.6923 50.225L49.8123 49.355L51.8823 49.37C52.2123 49.37 52.9123 49.335 53.9823 49.265L53.9073 50.255C53.5273 50.305 53.2723 50.385 53.1423 50.495C53.0223 50.595 52.9523 50.785 52.9323 51.065C52.8023 53.425 52.7373 55.41 52.7373 57.02C52.7373 57.43 52.7773 57.705 52.8573 57.845C52.9373 57.985 53.0923 58.055 53.3223 58.055C53.4323 58.055 53.6523 58.04 53.9823 58.01L54.0423 58.1L53.9073 59.045L53.3673 59.03L51.7023 59C51.2423 59 50.5523 59.045 49.6323 59.135L49.7223 58.175ZM56.5847 58.115C57.0447 58.075 57.3747 58.015 57.5747 57.935C57.7747 57.855 57.9097 57.715 57.9797 57.515C58.0497 57.315 58.0847 56.985 58.0847 56.525V50.51C57.5047 50.53 57.0947 50.58 56.8547 50.66C56.6247 50.74 56.4647 50.905 56.3747 51.155C56.2847 51.395 56.2047 51.835 56.1347 52.475L54.9047 52.565C54.9747 51.735 55.0347 50.67 55.0847 49.37L55.2497 49.205L56.7347 49.37H61.4147L62.9297 49.205L63.0947 49.37C63.1147 50.57 63.1647 51.605 63.2447 52.475L62.0147 52.565C61.9347 51.885 61.8497 51.42 61.7597 51.17C61.6797 50.92 61.5297 50.755 61.3097 50.675C61.0997 50.585 60.7197 50.53 60.1697 50.51C60.1197 51.25 60.0747 52.255 60.0347 53.525C60.0047 54.795 59.9897 55.95 59.9897 56.99C59.9897 57.36 60.0547 57.625 60.1847 57.785C60.3147 57.945 60.5247 58.025 60.8147 58.025C61.0647 58.025 61.3297 58.01 61.6097 57.98L61.6697 58.055L61.5347 59.06C60.4747 59.02 59.6147 59 58.9547 59C58.4347 59 57.6047 59.03 56.4647 59.09L56.5847 58.115ZM68.4129 59.18C67.5329 59.18 66.7679 58.99 66.1179 58.61C65.4779 58.22 64.9829 57.67 64.6329 56.96C64.2929 56.25 64.1229 55.41 64.1229 54.44C64.1229 53.4 64.3279 52.485 64.7379 51.695C65.1479 50.905 65.7229 50.29 66.4629 49.85C67.2129 49.41 68.0729 49.19 69.0429 49.19C69.9429 49.19 70.7179 49.38 71.3679 49.76C72.0279 50.13 72.5279 50.67 72.8679 51.38C73.2179 52.08 73.3929 52.915 73.3929 53.885C73.3929 54.925 73.1829 55.85 72.7629 56.66C72.3529 57.46 71.7679 58.08 71.0079 58.52C70.2579 58.96 69.3929 59.18 68.4129 59.18ZM68.8029 57.905C69.5229 57.905 70.0829 57.625 70.4829 57.065C70.8929 56.495 71.0979 55.695 71.0979 54.665C71.0979 53.355 70.8829 52.355 70.4529 51.665C70.0229 50.965 69.4129 50.615 68.6229 50.615C67.9129 50.615 67.3579 50.9 66.9579 51.47C66.5679 52.03 66.3729 52.825 66.3729 53.855C66.3729 55.165 66.5829 56.17 67.0029 56.87C67.4329 57.56 68.0329 57.905 68.8029 57.905Z" fill="#035C68"/>
<path d="M22.72 72.436C23.056 72.372 23.28 72.276 23.392 72.148C23.512 72.012 23.572 71.776 23.572 71.44L23.584 66.604C23.584 66.356 23.552 66.188 23.488 66.1C23.432 66.004 23.324 65.956 23.164 65.956C23.076 65.956 22.992 65.96 22.912 65.968C22.832 65.976 22.78 65.98 22.756 65.98L22.708 65.92L22.804 65.308L23.116 65.32L24.208 65.332C24.48 65.332 24.788 65.328 25.132 65.32C25.476 65.304 25.716 65.292 25.852 65.284C26.772 65.284 27.452 65.484 27.892 65.884C28.34 66.276 28.564 66.812 28.564 67.492C28.564 67.948 28.432 68.384 28.168 68.8C27.912 69.208 27.568 69.536 27.136 69.784C26.704 70.032 26.248 70.156 25.768 70.156H24.748L24.736 71.212C24.736 71.556 24.748 71.808 24.772 71.968C24.796 72.12 24.844 72.224 24.916 72.28C24.996 72.336 25.116 72.364 25.276 72.364C25.404 72.364 25.524 72.36 25.636 72.352C25.756 72.344 25.836 72.336 25.876 72.328L25.9 72.388L25.792 73.036C25.696 73.028 25.52 73.02 25.264 73.012C25.016 73.004 24.768 73 24.52 73C24.224 73 23.84 73.012 23.368 73.036C22.896 73.06 22.652 73.08 22.636 73.096L22.72 72.436ZM25.96 69.46C26.824 69.3 27.256 68.712 27.256 67.696C27.256 67.128 27.092 66.712 26.764 66.448C26.436 66.184 25.92 66.052 25.216 66.052C25.08 66.052 24.996 66.064 24.964 66.088C24.94 66.104 24.924 66.156 24.916 66.244C24.844 67.172 24.796 68.188 24.772 69.292L25.96 69.46ZM31.759 73.012L31.795 72.496C32.131 72.464 32.347 72.428 32.443 72.388C32.547 72.348 32.599 72.268 32.599 72.148C32.599 72.044 32.575 71.928 32.527 71.8L32.299 71.02C32.131 71.012 31.815 71.008 31.351 71.008C31.103 71.008 30.779 71.028 30.379 71.068L30.091 71.836C30.051 71.996 30.031 72.096 30.031 72.136C30.031 72.256 30.067 72.34 30.139 72.388C30.219 72.436 30.351 72.46 30.535 72.46H30.979L31.027 72.52L30.955 73.06C30.867 73.052 30.675 73.04 30.379 73.024C30.083 73.008 29.803 73 29.539 73C29.275 73 29.035 73.004 28.819 73.012C28.603 73.02 28.459 73.024 28.387 73.024L28.459 72.448C28.619 72.424 28.747 72.368 28.843 72.28C28.947 72.184 29.043 72.024 29.131 71.8L30.943 67.06L32.215 66.904L32.323 66.94C32.419 67.292 32.623 68.016 32.935 69.112C33.247 70.2 33.527 71.096 33.775 71.8C33.847 72.032 33.939 72.196 34.051 72.292C34.171 72.38 34.355 72.436 34.603 72.46L34.639 72.52L34.567 73.024C34.487 73.024 34.331 73.02 34.099 73.012C33.875 73.004 33.643 73 33.403 73C33.067 73 32.735 73.008 32.407 73.024C32.087 73.048 31.883 73.064 31.795 73.072L31.759 73.012ZM31.339 70.348C31.651 70.348 31.915 70.336 32.131 70.312L31.495 68.152H31.375L30.595 70.348H31.339ZM36.9834 73.108C36.6874 73.108 36.4154 73.084 36.1674 73.036C35.9194 72.988 35.7234 72.936 35.5794 72.88C35.4354 72.824 35.3434 72.788 35.3034 72.772L35.2314 72.64C35.2394 72.6 35.2514 72.508 35.2674 72.364C35.2914 72.22 35.3154 72.024 35.3394 71.776C35.3634 71.528 35.3754 71.284 35.3754 71.044L36.0834 70.984C36.0834 71.36 36.1154 71.648 36.1794 71.848C36.2514 72.04 36.3674 72.176 36.5274 72.256C36.6874 72.328 36.9194 72.364 37.2234 72.364C37.5674 72.364 37.8434 72.296 38.0514 72.16C38.2594 72.016 38.3634 71.824 38.3634 71.584C38.3634 71.416 38.2994 71.268 38.1714 71.14C38.0434 71.004 37.9034 70.896 37.7514 70.816C37.5994 70.736 37.3154 70.6 36.8994 70.408C36.3954 70.168 36.0074 69.928 35.7354 69.688C35.4634 69.44 35.3274 69.12 35.3274 68.728C35.3274 68.376 35.4354 68.064 35.6514 67.792C35.8674 67.512 36.1674 67.296 36.5514 67.144C36.9354 66.984 37.3674 66.904 37.8474 66.904C38.1274 66.904 38.3874 66.92 38.6274 66.952C38.8674 66.984 39.0594 67.02 39.2034 67.06C39.3474 67.092 39.4394 67.116 39.4794 67.132L39.5394 67.252C39.5234 67.34 39.4874 67.54 39.4314 67.852C39.3754 68.164 39.3314 68.496 39.2994 68.848L38.6754 68.896L38.5914 68.848C38.5914 68.832 38.5914 68.792 38.5914 68.728C38.5994 68.656 38.6034 68.572 38.6034 68.476C38.6034 68.188 38.5274 67.984 38.3754 67.864C38.2234 67.744 37.9594 67.684 37.5834 67.684C37.2874 67.684 37.0394 67.756 36.8394 67.9C36.6394 68.036 36.5394 68.208 36.5394 68.416C36.5394 68.632 36.6474 68.816 36.8634 68.968C37.0794 69.12 37.4114 69.3 37.8594 69.508C38.2434 69.684 38.5514 69.844 38.7834 69.988C39.0154 70.124 39.2154 70.296 39.3834 70.504C39.5514 70.712 39.6354 70.96 39.6354 71.248C39.6354 71.616 39.5234 71.94 39.2994 72.22C39.0834 72.5 38.7754 72.72 38.3754 72.88C37.9754 73.032 37.5114 73.108 36.9834 73.108ZM41.5544 72.484C41.8664 72.46 42.0864 72.42 42.2144 72.364C42.3504 72.308 42.4384 72.22 42.4784 72.1C42.5184 71.972 42.5384 71.76 42.5384 71.464V67.648C42.1304 67.664 41.8424 67.696 41.6744 67.744C41.5144 67.784 41.3944 67.884 41.3144 68.044C41.2424 68.196 41.1824 68.472 41.1344 68.872L40.4144 68.908C40.4304 68.796 40.4544 68.544 40.4864 68.152C40.5184 67.752 40.5384 67.368 40.5464 67L40.6424 66.904L41.5784 67H44.6504L45.5984 66.904L45.7064 67C45.7144 67.376 45.7344 67.756 45.7664 68.14C45.7984 68.516 45.8184 68.76 45.8264 68.872L45.1064 68.908C45.0504 68.492 44.9864 68.204 44.9144 68.044C44.8424 67.884 44.7304 67.784 44.5784 67.744C44.4264 67.696 44.1584 67.664 43.7744 67.648C43.7424 68.056 43.7104 68.672 43.6784 69.496C43.6544 70.312 43.6424 71.076 43.6424 71.788C43.6424 72.02 43.6824 72.184 43.7624 72.28C43.8504 72.376 43.9944 72.424 44.1944 72.424C44.3304 72.424 44.4424 72.42 44.5304 72.412C44.6264 72.404 44.6864 72.4 44.7104 72.4L44.7584 72.448L44.6744 73.036C44.5544 73.036 44.3304 73.028 44.0024 73.012C43.6744 73.004 43.3544 73 43.0424 73C42.8184 73 42.5264 73.008 42.1664 73.024C41.8144 73.04 41.5824 73.052 41.4704 73.06L41.5544 72.484ZM49.0559 73.012L49.0919 72.496C49.4279 72.464 49.6439 72.428 49.7399 72.388C49.8439 72.348 49.8959 72.268 49.8959 72.148C49.8959 72.044 49.8719 71.928 49.8239 71.8L49.5959 71.02C49.4279 71.012 49.1119 71.008 48.6479 71.008C48.3999 71.008 48.0759 71.028 47.6759 71.068L47.3879 71.836C47.3479 71.996 47.3279 72.096 47.3279 72.136C47.3279 72.256 47.3639 72.34 47.4359 72.388C47.5159 72.436 47.6479 72.46 47.8319 72.46H48.2759L48.3239 72.52L48.2519 73.06C48.1639 73.052 47.9719 73.04 47.6759 73.024C47.3799 73.008 47.0999 73 46.8359 73C46.5719 73 46.3319 73.004 46.1159 73.012C45.8999 73.02 45.7559 73.024 45.6839 73.024L45.7559 72.448C45.9159 72.424 46.0439 72.368 46.1399 72.28C46.2439 72.184 46.3399 72.024 46.4279 71.8L48.2399 67.06L49.5119 66.904L49.6199 66.94C49.7159 67.292 49.9199 68.016 50.2319 69.112C50.5439 70.2 50.8239 71.096 51.0719 71.8C51.1439 72.032 51.2359 72.196 51.3479 72.292C51.4679 72.38 51.6519 72.436 51.8999 72.46L51.9359 72.52L51.8639 73.024C51.7839 73.024 51.6279 73.02 51.3959 73.012C51.1719 73.004 50.9399 73 50.6999 73C50.3639 73 50.0319 73.008 49.7039 73.024C49.3839 73.048 49.1799 73.064 49.0919 73.072L49.0559 73.012ZM48.6359 70.348C48.9479 70.348 49.2119 70.336 49.4279 70.312L48.7919 68.152H48.6719L47.8919 70.348H48.6359Z" fill="#035C68"/>
</svg>
