<svg width="80" height="73" viewBox="0 0 80 73" fill="none" xmlns="http://www.w3.org/2000/svg">
<path d="M16.7335 53.3534V57.2201C16.7335 59.2712 17.5483 61.2382 18.9986 62.6885C20.4489 64.1389 22.416 64.9536 24.467 64.9536C26.5181 64.9536 28.4851 64.1389 29.9354 62.6885C31.3857 61.2382 32.2005 59.2712 32.2005 57.2201V37.8864H20.6003C17.5237 37.8864 14.5731 39.1085 12.3976 41.284C10.2222 43.4595 9 46.41 9 49.4866V53.3534H52.3076C53.7408 49.2127 53.5262 47.5839 56.9477 44.8466C60.3693 42.1094 62.3612 42.2222 67.0013 41.7531V27.8328C67.0013 25.7818 66.9049 23.8698 65.4546 22.4195C64.0043 20.9692 56.6787 21.6461 54.6277 21.6461H53.8543H53.081M59.2678 57.2201C59.2678 59.2712 60.0825 61.2382 61.5329 62.6885C62.9832 64.1389 64.9502 64.9536 67.0013 64.9536C69.0523 64.9536 71.0194 64.1389 72.4697 62.6885C73.92 61.2382 74.7348 59.2712 74.7348 57.2201C74.7348 55.1691 73.92 53.202 72.4697 51.7517C71.0194 50.3014 69.0523 49.4866 67.0013 49.4866C64.9502 49.4866 62.9832 50.3014 61.5329 51.7517C60.0825 53.202 59.2678 55.1691 59.2678 57.2201Z" stroke="#0C99A2" stroke-width="2" stroke-linecap="round" stroke-linejoin="round"/>
<path d="M9 24.7409C9 18.3344 14.1938 13.1406 20.6003 13.1406C27.0067 13.1406 32.2005 18.3344 32.2005 24.7409V33.2477H9V24.7409Z" stroke="#0C99A2" stroke-width="2" stroke-linecap="round" stroke-linejoin="round"/>
<path d="M23.6946 13.1401V11.5934C23.6946 10.773 23.3687 9.98616 22.7886 9.40604C22.2085 8.82591 21.4216 8.5 20.6012 8.5C19.7808 8.5 18.994 8.82591 18.4138 9.40604C17.8337 9.98616 17.5078 10.773 17.5078 11.5934V13.1401" stroke="#0C99A2" stroke-width="2"/>
</svg>
