<svg width="70" height="63" viewBox="0 0 70 63" fill="none" xmlns="http://www.w3.org/2000/svg">
<rect x="0.365767" y="-1.36506" width="10.9324" height="10.9218" rx="2.45455" transform="matrix(0.866378 -0.49939 -0.500611 -0.865672 32.2102 15.8263)" stroke="#0C99A2" stroke-width="2"/>
<rect x="1" y="-1" width="10.9376" height="10.9166" rx="5.45829" transform="matrix(1 0 0 -1 10.8506 27.8242)" stroke="#0C99A2" stroke-width="2"/>
<path d="M57.7804 23.1653C58.2658 23.4451 58.2658 24.1457 57.7804 24.4255L48.7351 29.6393C48.2502 29.9188 47.6446 29.5689 47.6446 29.0092L47.6446 18.5816C47.6446 18.0219 48.2502 17.672 48.7351 17.9515L57.7804 23.1653Z" stroke="#0C99A2" stroke-width="2"/>
<mask id="path-4-inside-1_1502_26398" fill="white">
<path fill-rule="evenodd" clip-rule="evenodd" d="M19.1299 44.4629H4.40254C0.698205 44.4629 -0.958713 49.111 1.91033 51.4542L11.5465 59.3242C11.9555 59.6583 12.1928 60.1586 12.1928 60.6867C12.1928 61.6583 12.9804 62.4459 13.952 62.4459H19.1299H50.87H56.0479C57.0194 62.4459 57.807 61.6583 57.807 60.6867C57.807 60.1586 58.0443 59.6583 58.4534 59.3242L68.0895 51.4542C70.9586 49.111 69.3017 44.4629 65.5973 44.4629H50.87H19.1299Z"/>
</mask>
<path d="M58.4534 59.3242L59.7185 60.8733L58.4534 59.3242ZM4.40254 46.4629H19.1299V42.4629H4.40254V46.4629ZM12.8116 57.7752L3.17545 49.9052L0.64521 53.0032L10.2813 60.8733L12.8116 57.7752ZM19.1299 60.4459H13.952V64.4459H19.1299V60.4459ZM19.1299 64.4459H50.87V60.4459H19.1299V64.4459ZM50.87 64.4459H56.0479V60.4459H50.87V64.4459ZM59.7185 60.8733L69.3547 53.0032L66.8244 49.9052L57.1883 57.7752L59.7185 60.8733ZM65.5973 42.4629H50.87V46.4629H65.5973V42.4629ZM50.87 42.4629H19.1299V46.4629H50.87V42.4629ZM69.3547 53.0032C73.6801 49.4705 71.1821 42.4629 65.5973 42.4629V46.4629C67.4212 46.4629 68.237 48.7515 66.8244 49.9052L69.3547 53.0032ZM56.0479 64.4459C58.124 64.4459 59.807 62.7628 59.807 60.6867H55.807C55.807 60.5537 55.9149 60.4459 56.0479 60.4459V64.4459ZM10.1928 60.6867C10.1928 62.7628 11.8759 64.4459 13.952 64.4459V60.4459C14.085 60.4459 14.1928 60.5537 14.1928 60.6867H10.1928ZM59.807 60.6867C59.807 60.759 59.7745 60.8275 59.7185 60.8733L57.1883 57.7752C56.3141 58.4892 55.807 59.5581 55.807 60.6867H59.807ZM10.2813 60.8733C10.2253 60.8275 10.1928 60.759 10.1928 60.6867H14.1928C14.1928 59.5581 13.6857 58.4892 12.8116 57.7752L10.2813 60.8733ZM4.40254 42.4629C-1.18222 42.4629 -3.68027 49.4705 0.64521 53.0032L3.17545 49.9052C1.76284 48.7515 2.57863 46.4629 4.40254 46.4629V42.4629Z" fill="#0C99A2" mask="url(#path-4-inside-1_1502_26398)"/>
</svg>
