<svg width="80" height="74" viewBox="0 0 80 74" fill="none" xmlns="http://www.w3.org/2000/svg">
<mask id="path-1-inside-1_1517_1709" fill="white">
<path fill-rule="evenodd" clip-rule="evenodd" d="M62.9655 54.7132C62.9655 54.7132 62.9655 54.7132 62.9655 54.7131C62.9655 41.9355 52.6832 31.5771 39.9994 31.5771C27.3155 31.5771 17.0332 41.9355 17.0332 54.7131C17.0332 54.7132 17.0332 54.7132 17.0332 54.7132H62.9655Z"/>
</mask>
<path d="M62.9655 54.7132V56.7132H64.9655V54.7132H62.9655ZM17.0332 54.7132H15.0332V56.7132H17.0332V54.7132ZM60.9655 54.7131V54.7131C60.9655 54.7131 60.9655 54.7131 60.9655 54.7131C60.9655 54.7131 60.9655 54.7131 60.9655 54.7131V54.7132C60.9655 54.7132 60.9655 54.7132 60.9655 54.7132C60.9655 54.7132 60.9655 54.7132 60.9655 54.7132V54.7132C60.9655 54.7132 60.9655 54.7132 60.9655 54.7132C60.9655 54.7132 60.9655 54.7132 60.9655 54.7132C60.9655 54.7132 60.9655 54.7132 60.9655 54.7132C60.9655 54.7132 60.9655 54.7132 60.9655 54.7132C60.9655 54.7132 60.9655 54.7132 60.9655 54.7132C60.9655 54.7132 60.9655 54.7132 60.9655 54.7132C60.9655 54.7132 60.9655 54.7132 60.9655 54.7132C60.9655 54.7132 60.9655 54.7132 60.9655 54.7132C60.9655 54.7132 60.9655 54.7132 60.9655 54.7132C60.9655 54.7132 60.9655 54.7132 60.9655 54.7132C60.9655 54.7132 60.9655 54.7132 60.9655 54.7132C60.9655 54.7132 60.9655 54.7132 60.9655 54.7132C60.9655 54.7132 60.9655 54.7132 60.9655 54.7132C60.9655 54.7132 60.9655 54.7132 60.9655 54.7132V54.7132C60.9655 54.7132 60.9655 54.7132 60.9655 54.7132C60.9655 54.7132 60.9655 54.7132 60.9655 54.7132V54.7132C60.9655 54.7132 60.9655 54.7132 60.9655 54.7132C60.9655 54.7132 60.9655 54.7132 60.9655 54.7132V54.7132H64.9655V54.7132C64.9655 54.7132 64.9655 54.7132 64.9655 54.7132C64.9655 54.7132 64.9655 54.7132 64.9655 54.7132V54.7132C64.9655 54.7132 64.9655 54.7132 64.9655 54.7132C64.9655 54.7132 64.9655 54.7132 64.9655 54.7132V54.7132C64.9655 54.7132 64.9655 54.7132 64.9655 54.7132C64.9655 54.7132 64.9655 54.7132 64.9655 54.7132C64.9655 54.7132 64.9655 54.7132 64.9655 54.7132C64.9655 54.7132 64.9655 54.7132 64.9655 54.7132C64.9655 54.7132 64.9655 54.7132 64.9655 54.7132C64.9655 54.7132 64.9655 54.7132 64.9655 54.7132C64.9655 54.7132 64.9655 54.7132 64.9655 54.7132C64.9655 54.7132 64.9655 54.7132 64.9655 54.7132C64.9655 54.7132 64.9655 54.7132 64.9655 54.7132C64.9655 54.7132 64.9655 54.7132 64.9655 54.7132C64.9655 54.7132 64.9655 54.7132 64.9655 54.7132C64.9655 54.7132 64.9655 54.7132 64.9655 54.7132C64.9655 54.7132 64.9655 54.7132 64.9655 54.7132C64.9655 54.7132 64.9655 54.7132 64.9655 54.7132V54.7132C64.9655 54.7132 64.9655 54.7132 64.9655 54.7132C64.9655 54.7132 64.9655 54.7132 64.9655 54.7132V54.7131C64.9655 54.7131 64.9655 54.7131 64.9655 54.7131C64.9655 54.7131 64.9655 54.7131 64.9655 54.7131V54.7131H60.9655ZM39.9994 33.5771C51.5648 33.5771 60.9655 43.0261 60.9655 54.7131H64.9655C64.9655 40.8448 53.8017 29.5771 39.9994 29.5771V33.5771ZM19.0332 54.7131C19.0332 43.0261 28.4339 33.5771 39.9994 33.5771V29.5771C26.1971 29.5771 15.0332 40.8448 15.0332 54.7131H19.0332ZM19.0332 54.7132C19.0332 54.7132 19.0332 54.7132 19.0332 54.7132C19.0332 54.7132 19.0332 54.7131 19.0332 54.7131H15.0332C15.0332 54.7132 15.0332 54.7132 15.0332 54.7132C15.0332 54.7132 15.0332 54.7132 15.0332 54.7132H19.0332ZM17.0332 56.7132H62.9655V52.7132H17.0332V56.7132Z" fill="#0C99A2" mask="url(#path-1-inside-1_1517_1709)"/>
<mask id="path-3-inside-2_1517_1709" fill="white">
<path fill-rule="evenodd" clip-rule="evenodd" d="M57.2217 54.7134C57.2217 54.7134 57.2217 54.7133 57.2217 54.7133C57.2217 45.1301 49.51 37.3613 39.9971 37.3613C30.4842 37.3613 22.7725 45.1301 22.7725 54.7133C22.7725 54.7133 22.7725 54.7134 22.7725 54.7134H57.2217Z"/>
</mask>
<path d="M57.2217 54.7134V56.7134H59.2217V54.7134H57.2217ZM22.7725 54.7134H20.7725V56.7134H22.7725V54.7134ZM55.2217 54.7133V54.7133C55.2217 54.7133 55.2217 54.7133 55.2217 54.7133C55.2217 54.7133 55.2217 54.7133 55.2217 54.7133V54.7133C55.2217 54.7133 55.2217 54.7133 55.2217 54.7133V54.7133C55.2217 54.7133 55.2217 54.7133 55.2217 54.7133C55.2217 54.7133 55.2217 54.7133 55.2217 54.7133V54.7133V54.7133C55.2217 54.7133 55.2217 54.7133 55.2217 54.7133C55.2217 54.7133 55.2217 54.7133 55.2217 54.7133C55.2217 54.7133 55.2217 54.7133 55.2217 54.7133C55.2217 54.7134 55.2217 54.7134 55.2217 54.7134C55.2217 54.7134 55.2217 54.7134 55.2217 54.7134C55.2217 54.7134 55.2217 54.7134 55.2217 54.7134C55.2217 54.7134 55.2217 54.7134 55.2217 54.7134C55.2217 54.7134 55.2217 54.7134 55.2217 54.7134C55.2217 54.7134 55.2217 54.7134 55.2217 54.7134V54.7134V54.7134C55.2217 54.7134 55.2217 54.7134 55.2217 54.7134C55.2217 54.7134 55.2217 54.7134 55.2217 54.7134V54.7134C55.2217 54.7134 55.2217 54.7134 55.2217 54.7134V54.7134C55.2217 54.7134 55.2217 54.7134 55.2217 54.7134C55.2217 54.7134 55.2217 54.7134 55.2217 54.7134V54.7134H59.2217V54.7134C59.2217 54.7134 59.2217 54.7134 59.2217 54.7134C59.2217 54.7134 59.2217 54.7134 59.2217 54.7134V54.7134C59.2217 54.7134 59.2217 54.7134 59.2217 54.7134V54.7134C59.2217 54.7134 59.2217 54.7134 59.2217 54.7134C59.2217 54.7134 59.2217 54.7134 59.2217 54.7134V54.7134V54.7134C59.2217 54.7134 59.2217 54.7134 59.2217 54.7134C59.2217 54.7134 59.2217 54.7134 59.2217 54.7134C59.2217 54.7134 59.2217 54.7134 59.2217 54.7134C59.2217 54.7134 59.2217 54.7134 59.2217 54.7134C59.2217 54.7134 59.2217 54.7134 59.2217 54.7134C59.2217 54.7134 59.2217 54.7134 59.2217 54.7133C59.2217 54.7133 59.2217 54.7133 59.2217 54.7133C59.2217 54.7133 59.2217 54.7133 59.2217 54.7133C59.2217 54.7133 59.2217 54.7133 59.2217 54.7133V54.7133V54.7133C59.2217 54.7133 59.2217 54.7133 59.2217 54.7133C59.2217 54.7133 59.2217 54.7133 59.2217 54.7133V54.7133C59.2217 54.7133 59.2217 54.7133 59.2217 54.7133V54.7133C59.2217 54.7133 59.2217 54.7133 59.2217 54.7133C59.2217 54.7133 59.2217 54.7133 59.2217 54.7133V54.7133H55.2217ZM39.9971 39.3613C48.3916 39.3613 55.2217 46.2207 55.2217 54.7133H59.2217C59.2217 44.0394 50.6284 35.3613 39.9971 35.3613V39.3613ZM24.7725 54.7133C24.7725 46.2207 31.6026 39.3613 39.9971 39.3613V35.3613C29.3658 35.3613 20.7725 44.0394 20.7725 54.7133H24.7725ZM24.7725 54.7134C24.7725 54.7134 24.7725 54.7134 24.7725 54.7133C24.7725 54.7133 24.7725 54.7133 24.7725 54.7133H20.7725C20.7725 54.7133 20.7725 54.7133 20.7725 54.7134C20.7725 54.7134 20.7725 54.7134 20.7725 54.7134H24.7725ZM22.7725 56.7134H57.2217V52.7134H22.7725V56.7134Z" fill="#0C99A2" mask="url(#path-3-inside-2_1517_1709)"/>
<mask id="path-5-inside-3_1517_1709" fill="white">
<path fill-rule="evenodd" clip-rule="evenodd" d="M50.3315 54.1352C50.3315 54.1351 50.3315 54.1351 50.3315 54.1351C50.3315 48.0657 45.4474 43.1455 39.4226 43.1455C33.3978 43.1455 28.5137 48.0657 28.5137 54.1351C28.5137 54.1351 28.5137 54.1351 28.5137 54.1352H50.3315Z"/>
</mask>
<path d="M50.3315 54.1352V56.1352H52.3315V54.1352H50.3315ZM28.5137 54.1352H26.5137V56.1352H28.5137V54.1352ZM48.3315 54.1351C48.3315 54.1351 48.3315 54.1351 48.3315 54.1351C48.3315 54.1351 48.3315 54.1351 48.3315 54.1351V54.1351C48.3315 54.1351 48.3315 54.1351 48.3315 54.1351V54.1351C48.3315 54.1351 48.3315 54.1351 48.3315 54.1351V54.1351C48.3315 54.1351 48.3315 54.1351 48.3315 54.1351V54.1351C48.3315 54.1351 48.3315 54.1351 48.3315 54.1351V54.1351C48.3315 54.1351 48.3315 54.1351 48.3315 54.1351C48.3315 54.1351 48.3315 54.1351 48.3315 54.1351C48.3315 54.1351 48.3315 54.1351 48.3315 54.1351C48.3315 54.1351 48.3315 54.1351 48.3315 54.1351C48.3315 54.1351 48.3315 54.1351 48.3315 54.1351C48.3315 54.1351 48.3315 54.1351 48.3315 54.1351C48.3315 54.1351 48.3315 54.1351 48.3315 54.1351C48.3315 54.1351 48.3315 54.1351 48.3315 54.1351V54.1351C48.3315 54.1351 48.3315 54.1351 48.3315 54.1351V54.1351C48.3315 54.1351 48.3315 54.1351 48.3315 54.1351V54.1351C48.3315 54.1351 48.3315 54.1351 48.3315 54.1351V54.1351C48.3315 54.1351 48.3315 54.1351 48.3315 54.1351V54.1351C48.3315 54.1351 48.3315 54.1351 48.3315 54.1351C48.3315 54.1351 48.3315 54.1351 48.3315 54.1351C48.3315 54.1351 48.3315 54.1351 48.3315 54.1351C48.3315 54.1351 48.3315 54.1351 48.3315 54.1351V54.1351C48.3315 54.1351 48.3315 54.1351 48.3315 54.1351V54.1351C48.3315 54.1351 48.3315 54.1351 48.3315 54.1351V54.1351C48.3315 54.1351 48.3315 54.1351 48.3315 54.1351V54.1351C48.3315 54.1351 48.3315 54.1351 48.3315 54.1351V54.1351C48.3315 54.1351 48.3315 54.1351 48.3315 54.1351C48.3315 54.1351 48.3315 54.1351 48.3315 54.1351C48.3315 54.1351 48.3315 54.1351 48.3315 54.1351C48.3315 54.1351 48.3315 54.1351 48.3315 54.1351C48.3315 54.1351 48.3315 54.1351 48.3315 54.1351C48.3315 54.1351 48.3315 54.1351 48.3315 54.1351C48.3315 54.1352 48.3315 54.1352 48.3315 54.1352C48.3315 54.1352 48.3315 54.1352 48.3315 54.1352V54.1352C48.3315 54.1352 48.3315 54.1352 48.3315 54.1352V54.1352C48.3315 54.1352 48.3315 54.1352 48.3315 54.1352V54.1352C48.3315 54.1352 48.3315 54.1352 48.3315 54.1352V54.1352C48.3315 54.1352 48.3315 54.1352 48.3315 54.1352V54.1352C48.3315 54.1352 48.3315 54.1352 48.3315 54.1352C48.3315 54.1352 48.3315 54.1352 48.3315 54.1352H52.3315C52.3315 54.1352 52.3315 54.1352 52.3315 54.1352C52.3315 54.1352 52.3315 54.1352 52.3315 54.1352V54.1352C52.3315 54.1352 52.3315 54.1352 52.3315 54.1352V54.1352C52.3315 54.1352 52.3315 54.1352 52.3315 54.1352V54.1352C52.3315 54.1352 52.3315 54.1352 52.3315 54.1352V54.1352C52.3315 54.1352 52.3315 54.1352 52.3315 54.1352V54.1352C52.3315 54.1352 52.3315 54.1352 52.3315 54.1352C52.3315 54.1352 52.3315 54.1352 52.3315 54.1351C52.3315 54.1351 52.3315 54.1351 52.3315 54.1351C52.3315 54.1351 52.3315 54.1351 52.3315 54.1351C52.3315 54.1351 52.3315 54.1351 52.3315 54.1351C52.3315 54.1351 52.3315 54.1351 52.3315 54.1351C52.3315 54.1351 52.3315 54.1351 52.3315 54.1351C52.3315 54.1351 52.3315 54.1351 52.3315 54.1351V54.1351C52.3315 54.1351 52.3315 54.1351 52.3315 54.1351V54.1351C52.3315 54.1351 52.3315 54.1351 52.3315 54.1351V54.1351C52.3315 54.1351 52.3315 54.1351 52.3315 54.1351V54.1351C52.3315 54.1351 52.3315 54.1351 52.3315 54.1351V54.1351C52.3315 54.1351 52.3315 54.1351 52.3315 54.1351C52.3315 54.1351 52.3315 54.1351 52.3315 54.1351C52.3315 54.1351 52.3315 54.1351 52.3315 54.1351C52.3315 54.1351 52.3315 54.1351 52.3315 54.1351V54.1351C52.3315 54.1351 52.3315 54.1351 52.3315 54.1351V54.1351C52.3315 54.1351 52.3315 54.1351 52.3315 54.1351V54.1351C52.3315 54.1351 52.3315 54.1351 52.3315 54.1351V54.1351C52.3315 54.1351 52.3315 54.1351 52.3315 54.1351V54.1351C52.3315 54.1351 52.3315 54.1351 52.3315 54.1351C52.3315 54.1351 52.3315 54.1351 52.3315 54.1351C52.3315 54.1351 52.3315 54.1351 52.3315 54.1351C52.3315 54.1351 52.3315 54.1351 52.3315 54.1351C52.3315 54.1351 52.3315 54.1351 52.3315 54.1351C52.3315 54.1351 52.3315 54.1351 52.3315 54.1351C52.3315 54.1351 52.3315 54.1351 52.3315 54.1351C52.3315 54.1351 52.3315 54.1351 52.3315 54.1351V54.1351C52.3315 54.1351 52.3315 54.1351 52.3315 54.1351V54.1351C52.3315 54.1351 52.3315 54.1351 52.3315 54.1351V54.1351C52.3315 54.1351 52.3315 54.1351 52.3315 54.1351V54.1351C52.3315 54.1351 52.3315 54.1351 52.3315 54.1351V54.1351C52.3315 54.1351 52.3315 54.1351 52.3315 54.1351C52.3315 54.1351 52.3315 54.1351 52.3315 54.1351H48.3315ZM39.4226 45.1455C44.329 45.1455 48.3315 49.1564 48.3315 54.1351H52.3315C52.3315 46.9751 46.5659 41.1455 39.4226 41.1455V45.1455ZM30.5137 54.1351C30.5137 49.1564 34.5162 45.1455 39.4226 45.1455V41.1455C32.2793 41.1455 26.5137 46.9751 26.5137 54.1351H30.5137ZM30.5137 54.1352C30.5137 54.1351 30.5137 54.1351 30.5137 54.1351C30.5137 54.1351 30.5137 54.1351 30.5137 54.1351H26.5137C26.5137 54.1351 26.5137 54.1351 26.5137 54.1351C26.5137 54.1352 26.5137 54.1352 26.5137 54.1352H30.5137ZM28.5137 56.1352H50.3315V52.1352H28.5137V56.1352Z" fill="#0C99A2" mask="url(#path-5-inside-3_1517_1709)"/>
<mask id="path-7-inside-4_1517_1709" fill="white">
<path fill-rule="evenodd" clip-rule="evenodd" d="M11.292 54.7139L68.7074 54.7139C68.7074 38.7419 55.8545 25.7939 39.9997 25.7939C24.1449 25.7939 11.292 38.7419 11.292 54.7139Z"/>
</mask>
<path d="M11.292 54.7139L9.29199 54.7139L9.29199 56.7139H11.292L11.292 54.7139ZM68.7074 54.7139V56.7139H70.7074V54.7139H68.7074ZM11.292 56.7139L68.7074 56.7139V52.7139L11.292 52.7139L11.292 56.7139ZM39.9997 27.7939C54.7361 27.7939 66.7074 39.8325 66.7074 54.7139H70.7074C70.7074 37.6512 56.973 23.7939 39.9997 23.7939V27.7939ZM13.292 54.7139C13.292 39.8325 25.2633 27.7939 39.9997 27.7939V23.7939C23.0264 23.7939 9.29201 37.6512 9.29199 54.7139L13.292 54.7139Z" fill="#0C99A2" mask="url(#path-7-inside-4_1517_1709)"/>
<mask id="path-9-inside-5_1517_1709" fill="white">
<path fill-rule="evenodd" clip-rule="evenodd" d="M21.6239 52.6777H4.57099C0.281765 52.6777 -1.63676 58.0597 1.68529 60.7729L12.8429 69.8856C13.3166 70.2725 13.5913 70.8517 13.5913 71.4632C13.5913 72.5882 14.5033 73.5001 15.6282 73.5001H21.6239H58.3754H64.371C65.4959 73.5001 66.4079 72.5882 66.4079 71.4632C66.4079 70.8517 66.6827 70.2725 67.1563 69.8856L78.3139 60.7729C81.636 58.0597 79.7175 52.6777 75.4282 52.6777H58.3754H21.6239Z"/>
</mask>
<path d="M78.3139 60.7729L77.0488 59.2239L78.3139 60.7729ZM67.1563 69.8856L68.4214 71.4347L67.1563 69.8856ZM4.57099 54.6777H21.6239V50.6777H4.57099V54.6777ZM14.108 68.3366L2.95042 59.2239L0.420172 62.322L11.5778 71.4347L14.108 68.3366ZM21.6239 71.5001H15.6282V75.5001H21.6239V71.5001ZM21.6239 75.5001H58.3754V71.5001H21.6239V75.5001ZM58.3754 75.5001H64.371V71.5001H58.3754V75.5001ZM68.4214 71.4347L79.5791 62.322L77.0488 59.2239L65.8912 68.3366L68.4214 71.4347ZM75.4282 50.6777H58.3754V54.6777H75.4282V50.6777ZM58.3754 50.6777H21.6239V54.6777H58.3754V50.6777ZM79.5791 62.322C84.3575 58.4193 81.5979 50.6777 75.4282 50.6777V54.6777C77.837 54.6777 78.9145 57.7002 77.0488 59.2239L79.5791 62.322ZM64.371 75.5001C66.6005 75.5001 68.4079 73.6927 68.4079 71.4632H64.4079C64.4079 71.472 64.4065 71.4753 64.4058 71.477C64.4046 71.4799 64.4019 71.4845 64.3971 71.4893C64.3923 71.4941 64.3877 71.4968 64.3847 71.498C64.3831 71.4987 64.3798 71.5001 64.371 71.5001V75.5001ZM11.5913 71.4632C11.5913 73.6927 13.3987 75.5001 15.6282 75.5001V71.5001C15.6195 71.5001 15.6161 71.4987 15.6145 71.498C15.6115 71.4968 15.6069 71.4941 15.6022 71.4893C15.5974 71.4845 15.5947 71.4799 15.5934 71.477C15.5927 71.4753 15.5913 71.472 15.5913 71.4632H11.5913ZM68.4079 71.4632C68.4079 71.4522 68.4129 71.4417 68.4214 71.4347L65.8912 68.3366C64.9525 69.1033 64.4079 70.2512 64.4079 71.4632H68.4079ZM11.5778 71.4347C11.5864 71.4417 11.5913 71.4522 11.5913 71.4632H15.5913C15.5913 70.2512 15.0468 69.1033 14.108 68.3366L11.5778 71.4347ZM4.57099 50.6777C-1.59868 50.6777 -4.3583 58.4193 0.420172 62.322L2.95042 59.2239C1.08478 57.7002 2.16221 54.6777 4.57099 54.6777V50.6777Z" fill="#0C99A2" mask="url(#path-9-inside-5_1517_1709)"/>
<path d="M40.3311 17.6963C40.3311 17.6963 38.9563 15.961 41.8264 11.912C44.6965 7.86304 40.3311 1.50035 40.3311 1.50035" stroke="#0C99A2" stroke-width="2" stroke-linecap="round"/>
<path d="M26.5498 23.4795C26.5498 23.4795 25.175 21.7442 28.0451 17.6952C30.9153 13.6462 26.5498 7.28355 26.5498 7.28355" stroke="#0C99A2" stroke-width="2" stroke-linecap="round"/>
<path d="M52.9629 23.4795C52.9629 23.4795 51.5881 21.7442 54.4582 17.6952C57.3283 13.6462 52.9629 7.28355 52.9629 7.28355" stroke="#0C99A2" stroke-width="2" stroke-linecap="round"/>
</svg>
