<svg width="70" height="63" viewBox="0 0 70 63" fill="none" xmlns="http://www.w3.org/2000/svg">
<path d="M13.8317 23.0089H8.52148V49.5598H56.3132V23.0089H52.3305M41.7101 20.3538C42.7493 20.9546 43.6391 21.7826 44.3133 22.7757C44.9874 23.7688 45.4284 24.9015 45.6032 26.089C45.7781 27.2765 45.6823 28.4882 45.323 29.6335C44.9637 30.7788 44.3502 31.8281 43.5283 32.7029C42.7065 33.5778 41.6976 34.2556 40.5769 34.6856C39.4563 35.1157 38.253 35.287 37.0568 35.1866C35.8607 35.0862 34.7028 34.7168 33.6695 34.106C32.6362 33.4952 31.7543 32.6587 31.0898 31.6592M35.0724 17.6987C35.0724 19.8112 34.2332 21.8372 32.7394 23.331C31.2457 24.8248 29.2197 25.664 27.1071 25.664C24.9946 25.664 22.9686 24.8248 21.4748 23.331C19.9811 21.8372 19.1419 19.8112 19.1419 17.6987C19.1419 15.5862 19.9811 13.5602 21.4748 12.0664C22.9686 10.5726 24.9946 9.7334 27.1071 9.7334C29.2197 9.7334 31.2457 10.5726 32.7394 12.0664C34.2332 13.5602 35.0724 15.5862 35.0724 17.6987Z" stroke="#0C99A2" stroke-width="2" stroke-linecap="round" stroke-linejoin="round"/>
<path d="M56.5275 28.8213H62.1247V55.3722H14.333V49.5599" stroke="#0C99A2" stroke-width="2" stroke-linecap="round" stroke-linejoin="round"/>
</svg>
